<?xml version="1.0" standalone="no"?>
<!DOCTYPE svg PUBLIC "-//W3C//DTD SVG 20010904//EN"
 "http://www.w3.org/TR/2001/REC-SVG-20010904/DTD/svg10.dtd">
<svg version="1.0" xmlns="http://www.w3.org/2000/svg"
 width="1234.000000pt" height="1234.000000pt" viewBox="0 0 1234.000000 1234.000000"
 preserveAspectRatio="xMidYMid meet">
<metadata>
Created by potrace 1.14, written by Peter Selinger 2001-2017
</metadata>
<g transform="translate(0.000000,1234.000000) scale(0.100000,-0.100000)"
fill="#000000" stroke="none">
<path d="M6286 12143 c-1 -1 -16 -3 -33 -5 -18 -1 -30 -5 -27 -9 2 -4 -5 -9
-16 -12 -13 -3 -18 -1 -13 6 5 9 3 9 -8 1 -8 -5 -23 -10 -34 -10 -11 1 -24 -5
-30 -11 -5 -7 -25 -14 -43 -15 -19 -1 -36 -7 -39 -12 -4 -5 -1 -6 7 -1 9 5 11
4 6 -3 -4 -7 -18 -12 -30 -12 -13 0 -29 -6 -36 -14 -6 -8 -21 -16 -33 -18 -12
-2 -21 -8 -20 -14 1 -6 -14 -16 -33 -23 -19 -7 -34 -17 -34 -22 0 -6 -4 -8 -9
-5 -5 3 -12 -1 -15 -10 -3 -8 -10 -12 -16 -9 -5 3 -10 0 -10 -7 0 -15 -35 -48
-50 -48 -6 0 -10 -4 -10 -10 0 -5 -18 -28 -40 -50 -22 -22 -40 -43 -40 -47 0
-5 -6 -15 -13 -23 -7 -9 -16 -24 -20 -33 -3 -9 -11 -17 -17 -17 -6 0 -9 -4 -6
-8 3 -5 -5 -20 -17 -33 -12 -13 -21 -25 -19 -26 1 -2 2 -12 2 -24 0 -13 -4
-18 -12 -13 -6 4 -8 3 -5 -2 3 -6 -2 -28 -12 -50 -10 -22 -21 -64 -24 -94 -3
-29 -10 -56 -15 -59 -14 -9 -14 -304 0 -312 6 -4 13 -31 15 -60 2 -30 10 -59
18 -65 11 -8 11 -12 -3 -22 -16 -11 -16 -11 1 -6 9 4 17 2 17 -3 0 -10 -51
-53 -60 -51 -10 4 -50 -37 -50 -50 0 -7 -4 -11 -8 -8 -5 3 -23 -8 -41 -24 -18
-17 -39 -30 -47 -30 -8 0 -12 -4 -9 -10 3 -5 2 -10 -4 -10 -5 0 -27 -17 -48
-37 -21 -21 -40 -38 -43 -38 -3 0 -4 -3 -2 -7 2 -7 -22 -12 -41 -9 -5 1 -6 -3
-3 -8 3 -5 -5 -16 -19 -25 -13 -9 -38 -30 -55 -46 -17 -17 -35 -30 -40 -30 -6
0 -10 -5 -10 -11 0 -5 -4 -7 -10 -4 -5 3 -10 2 -10 -4 0 -5 -13 -18 -29 -27
-17 -10 -28 -21 -25 -26 3 -4 1 -8 -5 -8 -6 0 -24 -13 -41 -30 -16 -16 -30
-26 -30 -22 0 4 -7 -1 -14 -11 -8 -10 -18 -18 -23 -18 -4 0 -24 -15 -45 -34
-20 -19 -41 -35 -48 -35 -6 0 -8 -4 -5 -10 3 -5 -6 -12 -20 -16 -14 -3 -23 -9
-21 -12 3 -3 -10 -16 -29 -29 -19 -13 -35 -28 -35 -33 0 -6 -5 -10 -11 -10 -7
0 -17 -7 -23 -14 -6 -8 -17 -16 -25 -18 -7 -2 -30 -20 -52 -40 -21 -21 -43
-38 -49 -38 -5 0 -10 -4 -10 -8 0 -5 -20 -23 -45 -41 -25 -18 -67 -52 -93 -76
-26 -25 -55 -45 -66 -45 -12 0 -16 -5 -12 -15 4 -10 -1 -15 -14 -15 -11 0 -20
-7 -20 -16 0 -8 -4 -13 -9 -9 -6 3 -13 -1 -18 -8 -4 -7 -26 -26 -48 -42 -22
-17 -43 -34 -47 -40 -4 -5 -8 -7 -8 -3 0 3 -14 -6 -31 -22 -58 -52 -69 -60
-86 -60 -9 0 -13 -3 -10 -6 7 -8 -44 -50 -56 -46 -4 1 -10 -5 -13 -13 -4 -8
-10 -15 -14 -15 -8 0 -41 -25 -80 -62 -10 -9 -21 -14 -24 -10 -3 3 -6 0 -6 -6
0 -7 -5 -12 -10 -12 -6 0 -24 -12 -39 -27 -43 -41 -59 -53 -71 -53 -5 0 -10
-4 -10 -10 0 -5 -6 -10 -13 -10 -7 0 -24 -13 -37 -30 -14 -16 -33 -29 -43 -30
-10 0 -20 -7 -23 -15 -4 -8 -10 -15 -14 -15 -5 0 -24 -13 -42 -30 -18 -16 -38
-30 -45 -30 -7 0 -13 -7 -13 -16 0 -8 -5 -12 -10 -9 -6 3 -13 -1 -16 -9 -3 -9
-10 -16 -15 -16 -11 0 -32 -16 -57 -42 -9 -10 -20 -18 -25 -18 -9 0 -30 -17
-55 -42 -9 -10 -21 -18 -27 -18 -5 0 -28 -17 -49 -37 -22 -21 -45 -38 -52 -39
-7 -1 -27 -16 -43 -33 -17 -18 -31 -28 -31 -24 0 4 -9 -3 -20 -15 -12 -12 -28
-22 -36 -22 -8 0 -13 -4 -9 -9 3 -5 -4 -12 -15 -16 -11 -3 -20 -10 -20 -15 0
-4 -9 -10 -21 -13 -12 -3 -18 -10 -14 -16 5 -10 -15 -16 -38 -12 -5 1 -6 -3
-3 -8 4 -5 -3 -12 -14 -16 -11 -3 -20 -11 -20 -16 0 -5 -7 -9 -15 -9 -8 0 -15
-7 -15 -15 0 -8 -6 -15 -14 -15 -8 0 -16 -7 -20 -15 -3 -8 -15 -15 -26 -15
-11 0 -20 -6 -20 -13 0 -6 -14 -18 -30 -25 -17 -8 -30 -20 -30 -28 0 -9 -4
-13 -10 -9 -5 3 -18 -3 -30 -15 -11 -11 -24 -20 -29 -20 -5 0 -11 -7 -15 -15
-3 -8 -12 -15 -21 -15 -8 0 -15 -7 -15 -15 0 -9 -9 -15 -22 -15 -12 0 -19 -3
-15 -6 3 -3 -5 -16 -18 -29 -14 -12 -22 -25 -18 -29 4 -3 -2 -13 -13 -22 -10
-8 -12 -12 -4 -8 12 6 13 4 3 -7 -7 -7 -13 -27 -13 -45 0 -18 -6 -35 -12 -37
-10 -4 -10 -6 0 -6 6 -1 12 -6 12 -12 0 -5 -6 -7 -13 -3 -9 6 -9 4 1 -7 6 -7
12 -38 12 -68 0 -40 3 -52 10 -41 8 13 10 12 11 -5 2 -30 4 -37 22 -77 9 -21
17 -44 17 -52 0 -8 5 -18 10 -21 6 -3 10 -15 10 -26 0 -11 7 -27 15 -35 8 -9
15 -24 15 -35 0 -10 5 -19 11 -19 8 0 7 -6 -2 -17 -8 -9 -9 -14 -3 -10 14 8
24 -14 24 -49 0 -14 6 -27 14 -30 8 -3 13 -11 10 -19 -3 -7 2 -19 10 -28 12
-12 13 -17 3 -20 -7 -3 -5 -6 5 -6 11 -1 16 -8 13 -21 -2 -11 0 -20 5 -20 5 0
6 -7 3 -17 -4 -11 -3 -14 5 -9 8 5 12 -3 12 -24 0 -18 6 -33 15 -36 8 -4 15
-18 15 -34 0 -16 7 -35 15 -44 8 -8 15 -28 15 -45 0 -17 5 -31 11 -31 5 0 7
-4 4 -10 -3 -5 -1 -10 6 -10 6 0 9 -8 6 -20 -3 -11 1 -23 8 -28 8 -4 16 -20
19 -36 3 -16 10 -34 16 -40 5 -5 10 -19 10 -31 0 -12 7 -30 15 -41 8 -10 15
-32 15 -47 0 -15 7 -30 15 -33 9 -4 15 -19 15 -39 0 -18 5 -35 11 -37 9 -3 16
-24 18 -55 1 -7 9 -13 19 -13 13 0 14 -2 3 -9 -10 -6 -10 -10 -1 -16 6 -4 9
-13 6 -20 -3 -8 2 -19 10 -25 8 -7 14 -20 14 -29 0 -9 6 -23 13 -30 10 -11 9
-12 -3 -6 -11 6 -10 3 3 -12 9 -11 17 -29 17 -42 0 -12 7 -24 15 -27 10 -4 15
-20 15 -45 0 -27 4 -39 14 -39 10 0 13 -7 11 -20 -2 -12 5 -30 15 -40 11 -11
16 -20 11 -20 -6 0 -4 -15 4 -34 8 -18 11 -37 7 -41 -4 -5 -1 -5 6 -1 8 5 12
-1 12 -18 0 -14 4 -26 9 -26 5 0 12 -7 15 -16 4 -10 2 -13 -7 -8 -9 6 -9 5 0
-7 11 -13 15 -25 22 -69 1 -3 6 2 11 10 7 11 10 4 10 -27 0 -24 5 -43 11 -43
5 0 7 -4 4 -10 -3 -5 -2 -10 2 -10 8 0 12 -15 15 -57 1 -7 5 -13 9 -13 4 0 12
-14 18 -31 14 -40 14 -42 -1 -33 -7 4 -5 -2 4 -13 10 -11 18 -29 18 -41 0 -12
6 -22 13 -22 9 0 9 -2 -1 -9 -11 -7 -11 -9 2 -14 10 -4 16 -18 16 -37 0 -16 5
-30 11 -30 5 0 7 -4 4 -10 -3 -5 -1 -10 4 -10 6 0 11 -12 11 -26 0 -15 8 -33
18 -40 12 -10 13 -13 3 -14 -11 0 -11 -3 -1 -15 6 -8 9 -19 6 -24 -4 -5 0 -14
9 -18 8 -5 16 -22 17 -38 1 -17 6 -35 11 -42 5 -7 5 -18 1 -24 -4 -8 -3 -9 4
-5 8 5 13 -1 14 -16 0 -13 2 -29 2 -36 1 -7 7 -16 14 -21 7 -4 14 -24 15 -44
1 -19 7 -35 12 -34 6 1 11 -18 13 -43 2 -31 6 -40 13 -30 7 12 9 9 10 -10 2
-24 4 -37 9 -52 1 -5 3 -11 5 -15 1 -5 7 -21 13 -36 7 -16 10 -33 6 -38 -3 -5
2 -12 10 -15 9 -4 16 -18 16 -34 0 -16 7 -35 15 -44 8 -8 15 -28 15 -45 0 -16
6 -34 14 -38 8 -4 16 -26 19 -48 2 -22 8 -39 14 -38 6 1 9 -8 8 -20 0 -12 3
-31 9 -42 18 -35 34 -85 25 -79 -5 3 -9 0 -9 -5 0 -6 7 -11 15 -11 10 0 15
-10 15 -30 0 -16 5 -30 10 -30 6 0 9 -3 8 -7 -1 -8 1 -16 22 -73 7 -19 15 -48
18 -65 2 -16 9 -33 14 -36 5 -3 10 -21 13 -40 2 -18 9 -35 15 -37 5 -2 8 -8 4
-13 -3 -5 -2 -9 3 -9 4 0 9 -12 10 -26 0 -15 5 -29 10 -33 9 -7 12 -19 15 -56
1 -13 6 -21 10 -19 4 3 12 -13 18 -34 11 -44 70 -112 95 -112 9 0 14 -4 11 -8
-4 -8 80 -37 97 -34 4 1 7 -1 7 -5 0 -11 103 -9 120 2 9 6 11 4 5 -4 -5 -10
-3 -11 11 -4 23 11 54 11 73 -1 10 -7 13 -5 9 5 -4 10 3 15 23 15 16 1 26 -3
23 -8 -3 -5 4 -4 16 4 22 14 22 7 7 135 -1 11 -5 19 -9 16 -5 -2 -8 4 -9 14
-2 48 -7 67 -17 71 -7 2 -12 24 -12 48 0 28 -4 43 -10 39 -5 -3 -10 0 -11 7
-2 43 -11 83 -20 95 -6 7 -8 13 -4 13 4 0 3 6 -2 12 -5 7 -10 27 -12 43 -2 17
-7 32 -12 35 -4 3 -9 20 -11 38 -1 17 -8 34 -15 36 -7 3 -13 21 -13 40 0 21
-6 36 -15 40 -10 3 -15 19 -15 45 0 25 -5 41 -15 45 -8 3 -14 9 -13 13 4 14
-13 83 -20 83 -4 0 -8 14 -8 31 -1 17 -7 35 -13 38 -6 4 -12 19 -13 34 -1 15
-8 29 -15 31 -7 3 -13 19 -13 35 0 16 -7 36 -15 44 -8 8 -15 33 -17 56 -1 23
-6 45 -12 48 -5 4 -6 1 -1 -7 5 -8 4 -11 -1 -7 -5 3 -11 20 -12 39 -2 18 -7
37 -12 42 -6 6 -10 17 -10 25 0 9 -7 29 -15 44 -8 16 -16 40 -17 55 -2 15 -7
30 -12 34 -5 3 -11 17 -14 30 -2 13 -5 30 -6 37 -2 8 -8 17 -14 19 -7 2 -12
18 -12 37 0 18 -7 38 -15 45 -8 7 -14 22 -13 34 1 29 -5 48 -20 65 -7 7 -11
20 -8 27 3 8 1 14 -5 14 -6 0 -8 7 -5 16 3 8 2 12 -4 9 -9 -5 -15 23 -11 48 0
4 -4 7 -10 7 -5 0 -7 5 -4 10 3 6 2 10 -2 10 -5 0 -10 8 -11 18 -1 9 -4 26 -6
37 -2 11 -5 24 -5 28 -1 5 -5 6 -9 3 -4 -2 -9 7 -10 21 -1 14 -7 32 -13 39 -6
7 -8 18 -4 24 3 5 1 10 -4 10 -6 0 -11 11 -11 24 0 14 -5 28 -11 31 -6 4 -8
13 -5 21 3 8 1 14 -5 14 -6 0 -9 7 -5 15 3 8 1 15 -5 15 -6 0 -8 4 -5 9 4 5 2
11 -4 13 -5 1 -10 20 -12 40 -1 20 -5 35 -9 32 -4 -2 -11 10 -14 28 -4 17 -14
38 -21 46 -8 7 -14 24 -14 38 0 37 0 38 -16 47 -8 4 -14 20 -14 35 0 15 -7 36
-15 46 -8 11 -15 30 -15 43 0 13 -4 23 -10 23 -5 0 -10 11 -10 24 0 14 -4 28
-10 31 -5 3 -14 24 -20 46 -6 22 -15 37 -19 34 -5 -2 -9 1 -8 8 0 6 -1 28 -2
47 -1 27 -4 31 -11 20 -5 -8 -10 -10 -11 -5 -3 38 -12 72 -25 96 -8 16 -15 39
-16 53 -1 14 -6 24 -12 23 -5 -1 -10 11 -11 26 -1 16 -7 32 -14 36 -7 4 -13
19 -14 32 -1 13 -7 30 -14 37 -7 7 -13 26 -13 41 0 16 -7 34 -15 41 -8 7 -15
20 -15 30 0 10 -7 31 -15 46 -8 16 -15 40 -15 54 0 20 -2 22 -10 10 -7 -11
-10 -7 -11 20 -1 19 -1 38 0 43 0 4 -6 7 -14 7 -13 0 -22 40 -16 73 1 5 -3 6
-8 3 -13 -9 -20 5 -23 47 -1 20 -6 33 -10 31 -4 -3 -8 -2 -9 3 -2 26 -9 46
-20 59 -7 8 -13 27 -14 40 0 14 -7 29 -14 33 -7 5 -12 10 -11 12 5 12 -14 78
-21 73 -8 -5 -10 3 -14 58 0 9 -5 21 -9 25 -5 5 -6 2 -1 -6 5 -9 4 -12 -3 -7
-7 4 -12 20 -12 36 0 17 -7 30 -16 34 -9 4 -14 9 -11 12 3 3 1 19 -3 35 -8 25
-4 33 23 59 18 16 38 30 45 30 7 0 10 5 7 10 -3 6 0 10 7 10 7 0 31 16 52 35
22 19 44 31 49 28 6 -3 7 -2 4 4 -4 6 5 15 18 21 14 7 25 16 25 22 0 5 5 10
11 10 6 0 17 7 26 15 8 8 19 12 25 9 7 -4 8 -2 4 4 -7 12 28 35 38 24 4 -3 4
1 0 11 -6 16 10 23 39 18 5 -1 6 2 3 7 -6 10 25 38 53 47 12 3 19 11 16 16 -4
5 1 9 9 9 8 0 20 8 25 18 6 9 11 13 11 7 0 -5 7 1 16 13 8 12 24 22 35 22 12
0 17 4 14 11 -4 6 2 13 13 16 11 3 23 12 26 20 3 8 10 11 16 8 5 -3 10 1 10 9
0 9 5 17 10 17 6 1 13 2 18 3 9 1 32 20 70 57 15 14 34 29 42 33 37 17 61 34
61 42 -1 5 3 9 7 9 5 0 16 8 26 18 10 9 21 15 26 12 5 -3 12 0 16 6 5 8 3 9
-6 4 -9 -5 -11 -4 -6 3 4 7 14 12 22 12 8 0 14 4 14 9 0 5 20 22 45 38 25 15
45 31 45 36 0 4 7 7 15 7 8 0 15 4 15 9 0 5 9 13 20 16 11 4 18 11 15 16 -4 5
1 9 9 9 9 0 16 5 16 11 0 5 5 7 10 4 6 -3 10 -1 10 4 0 6 7 11 15 11 8 0 15 7
15 16 0 9 5 14 12 12 7 -3 23 8 36 24 13 15 30 28 37 28 8 0 20 9 28 20 8 11
17 17 20 13 4 -3 7 -1 7 6 0 6 12 16 26 21 14 6 22 14 19 20 -3 5 3 10 13 10
11 0 23 7 26 16 4 9 9 14 12 11 3 -3 19 7 34 23 15 16 30 26 33 24 3 -3 14 7
26 22 11 15 21 23 21 18 0 -5 6 -2 13 6 7 9 25 25 41 38 16 12 25 22 20 23 -5
1 2 4 16 8 14 4 24 13 22 19 -2 11 5 14 25 11 3 0 10 6 15 15 5 9 16 16 23 16
8 0 14 6 13 13 -2 6 3 11 10 9 6 -1 12 5 12 14 0 8 4 13 9 10 5 -3 12 1 15 10
4 9 9 14 12 11 3 -3 16 5 29 19 12 13 30 24 38 24 11 0 14 5 10 17 -4 9 -2 14
4 10 5 -3 17 2 26 11 8 9 22 22 29 27 64 49 105 82 116 92 7 7 18 13 23 13 6
0 7 5 4 10 -3 6 -1 10 4 10 11 0 20 7 80 61 18 17 41 31 52 32 15 1 16 4 6 16
-9 11 -9 13 0 8 6 -4 14 -3 18 3 4 6 11 8 16 5 5 -4 9 1 9 9 0 9 4 16 10 16 5
0 28 18 52 40 24 22 51 42 61 46 9 3 17 10 17 15 0 5 7 9 15 9 8 0 15 7 15 15
0 8 6 15 14 15 8 0 17 7 20 16 3 8 10 12 16 9 5 -3 10 1 10 10 0 9 5 13 10 10
6 -3 13 1 16 9 3 9 10 13 15 10 5 -3 9 2 9 10 0 10 6 13 17 9 11 -4 14 -3 9 5
-4 7 0 15 10 19 9 3 30 19 46 35 16 15 36 28 46 29 12 0 13 2 4 6 -14 5 12 25
50 39 10 3 16 10 13 14 -3 5 4 11 15 15 11 3 20 12 20 20 0 7 11 16 25 19 14
4 23 11 20 16 -3 6 3 10 14 10 12 0 21 4 21 10 0 15 43 35 48 21 2 -6 10 -11
17 -11 7 0 16 -7 19 -16 3 -8 10 -13 15 -10 5 3 14 -1 21 -9 7 -8 21 -15 31
-15 11 0 19 -4 19 -9 0 -5 10 -13 23 -17 12 -4 25 -12 29 -18 5 -8 8 -7 8 2 0
10 4 10 16 -2 8 -9 21 -16 28 -16 8 0 18 -6 24 -13 6 -7 31 -12 56 -12 29 0
45 -4 42 -11 -2 -6 2 -11 10 -11 7 0 10 5 7 11 -4 6 0 5 9 -2 11 -9 52 -13
130 -14 178 -1 206 1 220 15 7 6 30 12 51 12 20 -1 37 2 37 7 0 4 19 12 43 19
23 6 45 15 48 20 3 5 17 10 32 11 18 2 26 7 23 15 -3 7 1 13 9 13 22 0 86 36
78 44 -3 3 0 6 8 6 8 0 22 9 32 20 9 11 24 20 32 20 9 0 14 4 11 9 -3 5 4 11
15 14 12 3 18 10 14 16 -3 6 -1 11 4 11 14 0 51 37 51 50 0 6 6 10 14 10 7 0
16 8 20 18 8 24 29 56 44 65 6 4 12 15 12 23 0 8 5 12 10 9 6 -3 10 3 10 13 0
11 7 25 15 32 8 7 15 20 15 30 0 10 7 23 15 30 8 7 15 22 15 34 0 12 4 26 9
32 9 9 18 49 20 87 1 10 5 16 10 13 5 -4 8 2 6 11 -1 10 0 23 4 28 8 13 9 315
1 315 -4 0 -6 10 -5 23 1 12 -2 24 -6 27 -4 3 -11 21 -14 39 -3 19 -10 42 -15
52 -6 10 -10 29 -10 43 0 16 -6 26 -15 26 -14 0 -20 17 -16 48 1 6 -5 12 -14
12 -9 0 -15 6 -12 13 2 6 -9 28 -24 48 -16 20 -29 42 -29 48 0 6 -5 11 -10 11
-6 0 -14 8 -17 17 -8 21 -100 113 -113 113 -6 0 -9 6 -8 13 2 6 -3 11 -9 10
-7 -2 -13 4 -13 12 0 8 -9 15 -20 15 -11 0 -20 5 -20 11 0 5 -4 7 -10 4 -5 -3
-10 -2 -10 3 0 11 -41 40 -62 44 -7 2 -17 8 -23 15 -5 7 -23 14 -40 17 -16 3
-31 10 -33 16 -2 5 -15 10 -29 10 -13 0 -31 6 -38 14 -8 7 -28 12 -44 11 -18
-1 -32 3 -35 11 -3 8 -12 11 -21 8 -8 -3 -15 -2 -15 2 0 8 -277 14 -284 7z
m218 -492 c6 -5 26 -11 43 -14 18 -3 40 -12 49 -21 8 -9 20 -14 25 -11 5 4 9
-1 9 -9 0 -9 9 -16 21 -16 11 0 17 -4 14 -10 -3 -5 -2 -10 4 -10 16 0 77 -66
73 -78 -2 -7 3 -12 12 -12 10 0 16 -9 16 -26 0 -14 4 -23 10 -19 9 5 10 2 10
-20 0 -3 6 -20 14 -39 8 -19 12 -37 8 -40 -3 -3 -1 -6 4 -6 5 0 9 -35 8 -77 0
-46 -5 -77 -11 -76 -5 1 -10 -4 -10 -12 0 -8 5 -11 11 -8 8 5 7 2 0 -8 -6 -8
-14 -27 -18 -42 -4 -17 -11 -25 -18 -21 -6 4 -8 3 -4 -4 3 -6 2 -13 -4 -17 -6
-4 -8 -11 -5 -16 4 -5 -5 -20 -19 -32 -14 -13 -23 -27 -19 -30 3 -4 -2 -9 -11
-13 -9 -4 -36 -24 -59 -45 -22 -22 -49 -39 -59 -39 -10 0 -21 -6 -24 -14 -3
-8 -14 -15 -25 -15 -10 -1 -28 -1 -39 -2 -11 0 -18 -4 -15 -10 4 -5 -4 -9 -17
-9 -13 0 -41 0 -63 -1 -59 -2 -104 4 -99 13 3 4 -6 9 -20 10 -14 0 -32 1 -38
2 -7 1 -17 7 -21 14 -4 6 -14 12 -22 12 -8 0 -25 11 -39 25 -14 14 -29 25 -33
25 -5 0 -17 12 -28 27 -11 15 -30 36 -41 48 -25 25 -50 77 -59 123 -4 17 -11
32 -16 32 -13 0 -10 161 3 177 5 6 11 24 14 39 3 16 11 35 17 43 10 12 9 13
-3 7 -9 -4 -8 -1 3 7 9 8 17 17 17 20 0 7 20 32 58 75 12 14 22 30 22 36 0 6
5 4 10 -4 8 -13 10 -12 10 3 0 9 6 17 14 17 8 0 16 7 20 15 3 8 17 15 32 15
19 0 25 4 21 14 -4 10 0 14 12 11 10 -2 31 3 45 10 19 10 24 11 19 2 -5 -9 -3
-9 8 -1 8 7 23 13 33 15 34 7 138 0 150 -10z"/>
<path d="M7216 10024 c-3 -9 -10 -13 -15 -10 -5 3 -14 -1 -21 -9 -7 -8 -18
-15 -26 -15 -7 0 -18 -8 -23 -17 -6 -10 -11 -15 -11 -11 0 4 -13 -6 -30 -24
-16 -17 -30 -28 -30 -25 0 3 -11 -4 -24 -16 -13 -12 -39 -37 -59 -55 -20 -19
-41 -31 -46 -27 -6 3 -11 -1 -11 -9 0 -9 -6 -16 -14 -16 -8 0 -16 -7 -20 -15
-3 -8 -10 -15 -16 -15 -5 0 -30 -20 -56 -45 -25 -25 -52 -45 -60 -45 -8 0 -14
-7 -14 -16 0 -8 -4 -13 -9 -10 -4 3 -19 -8 -31 -24 -12 -16 -26 -28 -30 -25
-4 2 -15 -4 -25 -15 -10 -11 -24 -20 -32 -20 -7 0 -12 -3 -11 -7 2 -5 1 -8 -2
-9 -3 0 -21 -15 -40 -32 -19 -18 -38 -32 -43 -32 -4 0 -6 -4 -3 -9 3 -5 -8
-14 -25 -20 -17 -6 -28 -15 -24 -21 3 -5 1 -10 -5 -10 -6 0 -18 -7 -27 -15 -8
-8 -20 -12 -26 -8 -6 4 -8 0 -4 -10 4 -11 1 -17 -8 -17 -8 0 -18 -7 -23 -15
-4 -9 -18 -17 -29 -18 -13 0 -19 -6 -16 -14 3 -7 -2 -13 -11 -13 -9 0 -16 -4
-16 -9 0 -5 -9 -13 -20 -16 -11 -4 -18 -11 -15 -16 4 -5 0 -9 -8 -9 -8 0 -17
-7 -21 -15 -3 -8 -12 -15 -21 -15 -8 0 -15 -4 -15 -8 0 -5 -11 -15 -25 -22
-13 -7 -22 -17 -19 -22 3 -4 0 -8 -7 -8 -6 0 -28 -14 -48 -30 -20 -17 -43 -36
-51 -43 -8 -7 -18 -11 -22 -10 -5 2 -8 -4 -8 -12 0 -8 -9 -15 -21 -15 -11 0
-17 -5 -14 -10 3 -6 -1 -13 -9 -16 -9 -3 -16 -12 -16 -19 0 -7 -6 -12 -14 -11
-12 1 -83 -53 -128 -96 -10 -10 -25 -18 -33 -18 -9 0 -12 -6 -8 -17 4 -10 2
-14 -4 -10 -6 4 -25 -7 -42 -24 -18 -17 -36 -27 -42 -23 -7 4 -9 3 -6 -2 9
-15 -8 -35 -31 -37 -11 0 -18 -5 -16 -9 3 -5 -2 -11 -12 -15 -9 -3 -30 -19
-46 -35 -16 -15 -33 -28 -39 -28 -6 0 -7 -5 -4 -10 4 -6 2 -9 -3 -8 -12 3 -43
-16 -85 -54 -17 -15 -34 -25 -39 -22 -5 3 -7 0 -6 -8 2 -7 -3 -12 -9 -10 -7 1
-13 -2 -13 -7 0 -5 -9 -13 -20 -16 -11 -4 -18 -11 -15 -16 4 -5 -3 -9 -15 -9
-12 0 -19 -4 -15 -9 3 -5 -4 -12 -15 -16 -11 -3 -20 -11 -20 -17 0 -6 -3 -9
-6 -5 -6 5 -36 -17 -79 -59 -12 -11 -27 -18 -33 -16 -7 2 -12 -4 -12 -13 0 -9
-5 -15 -12 -13 -6 2 -26 -11 -45 -29 -19 -19 -38 -31 -45 -27 -6 4 -8 3 -4 -4
3 -6 -3 -13 -14 -17 -11 -3 -20 -13 -20 -21 0 -8 -4 -13 -8 -10 -5 3 -20 -6
-35 -20 -15 -14 -27 -22 -27 -18 0 4 -9 -3 -20 -16 -11 -13 -20 -19 -20 -15 0
4 -8 -1 -18 -11 -30 -33 -66 -60 -58 -44 5 8 -3 3 -16 -12 -14 -16 -29 -28
-34 -28 -5 0 -20 -12 -33 -25 -12 -14 -28 -22 -34 -18 -6 3 -7 1 -3 -5 7 -11
-6 -17 -27 -13 -5 1 -6 -3 -2 -8 3 -6 -4 -15 -16 -21 -11 -7 -32 -21 -46 -33
-13 -12 -30 -22 -36 -22 -7 0 -12 -7 -12 -15 0 -9 -8 -14 -18 -12 -10 2 -17
-3 -17 -13 0 -8 -7 -15 -15 -15 -9 0 -18 -7 -21 -15 -4 -8 -15 -15 -26 -15
-10 0 -16 -4 -13 -10 3 -5 1 -10 -4 -10 -6 0 -20 -9 -31 -20 -11 -11 -20 -17
-20 -14 0 4 -11 -5 -24 -19 -13 -14 -27 -23 -30 -20 -3 4 -6 1 -6 -5 0 -7 -4
-12 -9 -12 -6 0 -25 -13 -43 -30 -18 -16 -36 -30 -40 -30 -9 0 -50 -34 -79
-64 -11 -11 -19 -16 -19 -11 0 5 -13 -4 -30 -20 -16 -16 -30 -25 -30 -22 0 7
-20 -11 -92 -81 -16 -15 -28 -33 -28 -39 0 -7 -8 -13 -17 -13 -15 0 -16 -2 -3
-10 9 -6 10 -10 3 -10 -12 0 -14 -11 -14 -75 0 -21 -5 -45 -11 -53 -8 -9 -8
-16 -1 -20 9 -6 19 -43 25 -89 1 -7 5 -10 10 -7 4 3 9 -2 9 -10 2 -20 3 -25
17 -59 7 -16 12 -40 12 -55 0 -21 2 -24 10 -12 9 13 10 13 11 0 1 -22 7 -49
14 -67 5 -14 7 -14 20 3 8 10 15 15 15 10 0 -5 7 -3 15 4 8 7 15 10 15 7 0 -3
15 7 32 24 18 16 38 29 44 29 6 0 23 11 38 25 14 13 30 26 34 27 4 2 6 6 5 10
-2 4 4 5 12 2 8 -4 15 -1 15 5 0 6 6 11 14 11 8 0 16 7 20 15 3 8 15 15 26 15
12 0 19 4 15 9 -3 5 5 13 17 17 13 4 26 11 29 16 3 5 15 11 25 12 10 2 18 9
17 15 -2 6 2 11 7 11 6 0 12 0 15 0 3 0 14 9 25 20 12 12 26 18 32 14 7 -4 8
-3 4 5 -4 6 0 14 11 18 10 4 30 18 45 32 42 40 56 51 65 51 4 0 28 18 52 39
25 22 48 38 53 35 4 -3 8 2 8 11 0 9 5 13 10 10 6 -3 10 -1 10 4 0 6 4 11 10
11 5 0 23 14 40 30 28 27 42 34 62 31 4 0 5 6 2 14 -4 9 0 15 8 15 8 0 30 14
49 30 61 54 67 58 73 53 3 -3 8 2 12 11 3 9 12 16 19 16 7 0 15 7 19 15 3 8
15 15 26 15 12 0 18 5 15 10 -3 6 2 13 12 17 10 4 28 17 40 30 12 13 27 23 33
23 5 0 10 5 10 11 0 5 4 8 9 5 5 -3 12 1 15 10 3 8 10 12 16 9 5 -3 10 1 10 9
0 9 5 16 11 16 7 0 17 7 23 15 6 9 21 17 33 17 14 2 19 7 15 17 -3 9 -1 12 6
7 6 -3 15 2 21 11 6 10 11 15 11 11 0 -4 11 3 24 15 47 43 61 52 74 49 8 -2
12 0 10 5 -2 4 6 18 19 30 13 12 23 19 23 16 0 -4 7 2 16 13 8 10 13 12 9 4
-4 -8 3 -4 14 9 12 13 21 20 21 17 0 -3 14 7 31 24 17 16 35 27 40 24 5 -3 6
2 3 11 -4 9 -3 15 2 14 23 -4 45 2 39 11 -3 6 0 10 8 10 8 0 18 7 21 16 3 8 9
13 13 11 10 -6 34 19 26 27 -4 3 3 6 14 6 12 0 23 7 27 15 3 8 10 15 16 15 5
0 19 9 30 20 12 12 26 18 32 14 7 -4 8 -3 4 5 -4 6 0 14 11 18 10 3 30 19 46
35 15 15 27 26 27 23 0 -3 10 5 23 18 12 12 21 25 19 30 -1 4 1 6 5 6 28 -4
45 2 39 16 -5 13 5 20 27 16 4 0 7 3 7 9 0 5 7 10 15 10 8 0 15 7 15 16 0 8 4
13 9 10 5 -3 12 1 15 9 3 9 17 20 31 25 14 5 25 14 25 20 0 5 5 10 10 10 6 0
21 11 34 25 13 14 26 25 29 25 6 0 46 32 84 68 13 12 28 22 33 22 6 0 10 7 10
15 0 8 3 14 8 14 19 -3 33 2 27 11 -6 9 8 14 28 11 4 0 7 6 7 14 0 8 7 15 15
15 9 0 18 7 21 15 4 8 12 15 20 15 8 0 14 7 14 15 0 8 6 15 13 15 7 0 20 9 30
20 10 12 23 18 29 14 7 -5 8 -3 4 5 -5 8 0 14 13 18 11 3 18 9 15 14 -3 5 2 9
11 9 8 0 18 7 21 15 4 8 10 15 16 15 5 0 20 12 33 26 14 15 25 23 25 19 0 -4
11 4 25 19 14 15 25 24 25 20 0 -3 21 14 48 40 26 25 55 49 65 52 9 3 17 10
17 15 0 5 4 9 9 9 6 0 25 14 43 30 18 17 39 28 47 25 11 -4 11 -3 2 9 -11 13
-8 16 13 22 14 3 26 13 26 21 0 8 5 11 10 8 6 -3 13 1 16 9 3 9 10 16 16 16 5
0 20 12 33 26 14 15 25 24 25 20 0 -4 12 5 26 19 14 14 30 22 36 19 6 -4 8 -3
5 3 -4 6 4 18 18 27 13 9 33 26 45 38 17 18 20 19 20 5 0 -9 5 -17 11 -17 5 0
7 6 3 13 -7 12 13 -4 66 -50 13 -13 31 -23 38 -23 7 0 15 -7 18 -15 4 -8 12
-15 20 -15 8 0 14 -4 14 -10 0 -5 7 -10 15 -10 8 0 15 -4 15 -10 0 -5 7 -10
15 -10 8 0 15 -5 15 -11 0 -5 5 -7 10 -4 6 3 10 -1 10 -9 0 -9 9 -16 20 -16
11 0 23 -7 26 -15 4 -8 13 -15 20 -15 8 0 17 -7 20 -15 4 -8 12 -15 19 -15 7
0 15 -4 17 -9 2 -5 9 -11 17 -13 7 -2 27 -15 45 -30 17 -16 35 -28 41 -28 5 0
27 -16 49 -35 21 -19 42 -32 47 -29 5 3 9 -2 9 -11 0 -10 6 -15 13 -12 7 3 19
-4 25 -14 7 -10 19 -19 27 -19 8 0 15 -4 15 -10 0 -5 9 -10 21 -10 11 0 17 -5
14 -10 -3 -6 5 -14 19 -20 14 -5 26 -14 26 -20 0 -6 4 -8 10 -5 5 3 17 -3 27
-14 9 -11 21 -17 26 -14 6 3 7 1 3 -6 -5 -7 4 -16 23 -24 17 -7 28 -17 24 -22
-5 -4 -3 -5 4 -1 7 4 21 -1 31 -11 24 -23 53 -42 75 -49 9 -4 17 -13 17 -20 0
-8 7 -14 16 -14 8 0 22 -6 29 -12 32 -29 45 -38 52 -38 5 0 16 -9 26 -20 10
-12 22 -18 27 -15 6 3 10 -1 10 -9 0 -9 7 -16 15 -16 8 0 15 -4 15 -10 0 -5 7
-10 15 -10 9 0 18 -7 21 -15 4 -8 10 -12 15 -9 5 3 9 0 9 -6 0 -6 5 -8 10 -5
6 3 13 -1 16 -9 3 -9 12 -16 20 -16 8 0 14 -5 14 -10 0 -6 10 -15 23 -21 44
-20 67 -36 60 -42 -3 -4 -1 -7 6 -7 13 0 74 -40 79 -52 2 -5 10 -8 17 -8 7 0
15 -7 19 -15 3 -8 15 -15 26 -15 11 0 20 -7 20 -15 0 -8 9 -15 19 -15 11 0 26
-7 35 -15 8 -8 20 -15 26 -15 6 0 9 -4 6 -9 -3 -5 6 -12 21 -16 15 -3 35 -16
46 -28 10 -12 23 -23 28 -23 5 -1 16 -2 24 -3 8 0 15 -7 15 -13 0 -7 19 -22
41 -33 23 -10 43 -25 46 -32 3 -6 11 -9 19 -6 8 3 14 -1 14 -11 0 -9 8 -16 20
-16 11 0 23 -6 26 -14 3 -8 17 -17 30 -20 15 -4 22 -11 18 -18 -4 -7 -3 -8 4
-4 6 4 20 -2 31 -13 11 -11 22 -17 25 -13 3 3 6 1 6 -5 0 -6 14 -16 30 -23 17
-7 30 -16 30 -20 0 -4 9 -10 21 -13 12 -3 18 -10 14 -17 -3 -6 -3 -9 2 -8 17
4 53 -14 47 -24 -5 -8 -1 -9 10 -5 10 4 19 1 22 -8 4 -8 10 -12 15 -9 5 3 9 0
9 -6 0 -6 5 -8 13 -4 7 5 6 0 -3 -11 -8 -10 -10 -16 -4 -12 14 8 67 -17 57
-26 -3 -4 3 -7 14 -7 11 0 26 -7 33 -15 7 -8 20 -15 30 -15 10 0 20 -7 24 -15
3 -8 13 -15 21 -15 9 0 14 -4 11 -9 -3 -5 6 -12 20 -15 14 -4 36 -18 48 -31
13 -14 33 -25 45 -25 13 0 19 -4 16 -10 -4 -6 7 -15 24 -21 17 -6 28 -15 25
-20 -3 -5 4 -9 15 -9 11 0 24 -6 28 -12 9 -15 41 -36 66 -44 9 -4 17 -10 17
-15 0 -5 7 -9 15 -9 9 0 18 -7 21 -15 4 -8 10 -13 14 -10 7 4 19 -4 67 -45 7
-5 16 -10 21 -10 5 0 17 -9 27 -20 10 -11 22 -17 26 -14 5 3 9 0 9 -6 0 -6 11
-15 25 -20 18 -7 24 -16 23 -34 -1 -14 -6 -22 -10 -20 -8 5 -10 -8 -12 -73 -1
-16 -6 -31 -13 -35 -17 -12 -18 -318 -1 -318 9 0 9 -3 -2 -10 -13 -8 -13 -10
2 -10 11 0 15 -7 13 -25 -1 -14 2 -28 7 -31 5 -3 4 -12 -3 -20 -9 -11 -8 -15
5 -20 9 -3 13 -10 10 -15 -3 -5 0 -9 7 -9 6 0 9 -8 6 -20 -3 -10 1 -24 9 -31
8 -6 14 -20 14 -30 0 -11 4 -19 9 -19 11 0 32 -56 24 -64 -4 -3 1 -6 10 -6 10
0 17 -8 17 -21 0 -11 5 -17 10 -14 6 3 10 0 10 -7 0 -8 14 -28 30 -46 17 -18
30 -35 30 -38 0 -8 40 -44 50 -44 6 0 10 -7 10 -15 0 -8 4 -15 8 -15 4 0 25
-16 45 -35 20 -19 37 -32 37 -29 0 3 7 -2 16 -10 8 -9 20 -14 25 -11 5 4 9 -2
9 -11 0 -10 3 -14 7 -11 3 4 14 0 23 -8 10 -9 28 -18 41 -20 13 -3 25 -9 27
-15 2 -5 11 -10 21 -10 9 0 26 -7 37 -15 10 -8 28 -15 40 -15 11 0 26 -6 33
-12 11 -10 13 -10 7 0 -4 6 -2 12 3 12 6 0 11 -4 11 -9 0 -11 57 -21 137 -25
28 -1 58 -8 66 -14 12 -10 17 -10 23 -1 4 8 3 9 -4 5 -7 -4 -12 -3 -12 2 0 5
19 8 43 7 31 -1 41 -5 39 -15 -3 -11 1 -11 15 2 12 11 39 18 76 19 32 1 70 8
84 16 14 7 36 13 49 13 13 0 24 4 24 9 0 5 12 12 28 15 37 9 102 39 102 49 0
4 7 7 15 7 8 0 15 5 15 12 0 6 3 9 6 5 4 -3 13 1 21 9 8 8 19 12 24 9 5 -4 9
1 9 9 0 9 7 16 15 16 8 0 15 7 15 15 0 8 3 14 8 14 19 -3 33 2 27 11 -3 6 1
10 9 10 9 0 16 5 16 11 0 5 5 7 10 4 6 -4 9 -3 8 2 -3 8 19 37 53 72 32 33 69
88 63 94 -4 4 1 9 10 13 9 3 16 12 16 20 0 8 5 14 11 14 5 0 7 5 4 10 -3 6 -1
10 4 10 6 0 11 7 11 16 0 8 7 22 15 30 8 9 15 24 15 34 0 10 6 30 14 45 8 15
13 36 11 46 -2 11 1 19 6 19 6 0 8 4 5 9 -4 5 -1 11 5 13 17 6 16 403 -1 423
-12 14 -19 40 -22 82 -1 7 -5 10 -10 7 -4 -3 -8 6 -8 20 0 31 -10 57 -19 51
-4 -2 -8 1 -9 8 -3 33 -11 52 -21 50 -6 -2 -11 6 -11 17 0 11 -4 20 -10 20 -5
0 -10 6 -10 14 0 8 -13 28 -30 46 -16 18 -30 35 -30 39 0 14 -132 141 -146
141 -8 0 -17 7 -20 15 -4 8 -12 15 -20 15 -8 0 -14 4 -14 9 0 5 -10 13 -22 17
-12 3 -28 13 -36 20 -7 8 -22 14 -33 14 -11 0 -17 5 -14 10 5 8 -15 13 -42 9
-3 0 -10 6 -15 15 -5 9 -20 16 -33 16 -13 0 -27 5 -30 10 -4 6 -11 8 -16 5 -5
-4 -9 -1 -9 4 0 6 -22 11 -51 11 -37 0 -48 3 -43 13 6 9 5 9 -7 0 -12 -10 -18
-10 -28 0 -15 15 -211 18 -211 2 0 -5 -5 -3 -10 5 -7 11 -10 11 -10 2 0 -7 -5
-10 -10 -7 -6 4 -16 2 -23 -4 -7 -5 -34 -11 -60 -12 -26 -2 -53 -9 -59 -16 -6
-7 -26 -13 -44 -13 -19 0 -34 -4 -34 -10 0 -5 -12 -13 -27 -16 -16 -4 -31 -11
-34 -16 -3 -5 -15 -10 -27 -11 -12 0 -19 -3 -17 -5 5 -5 -52 -45 -77 -55 -10
-3 -18 -11 -18 -17 0 -16 -50 -12 -56 5 -4 8 -14 15 -23 15 -9 0 -27 12 -40
25 -13 14 -34 28 -47 31 -13 3 -24 10 -24 15 0 5 -7 9 -15 9 -8 0 -15 7 -15
16 0 8 -4 13 -9 10 -5 -3 -20 3 -34 14 -14 11 -33 20 -44 20 -15 0 -16 2 -3
10 13 8 12 10 -2 10 -10 0 -18 4 -18 10 0 5 -7 7 -15 4 -9 -4 -15 0 -15 10 0
9 -3 15 -7 15 -20 -3 -34 2 -29 10 3 5 -5 12 -19 15 -14 4 -25 11 -25 16 0 6
-7 10 -15 10 -9 0 -18 7 -21 15 -4 8 -10 13 -14 10 -4 -2 -18 4 -30 15 -12 11
-31 22 -41 25 -11 4 -19 11 -19 16 0 5 -7 9 -15 9 -8 0 -15 4 -15 9 0 5 -10
11 -22 15 -13 3 -35 17 -50 31 -15 14 -34 25 -41 25 -8 0 -17 7 -21 15 -3 8
-12 15 -21 15 -8 0 -15 4 -15 8 0 5 -18 17 -40 28 -22 10 -40 23 -40 27 0 4
-13 13 -30 18 -16 6 -30 15 -30 20 0 5 -5 9 -11 9 -6 0 -28 14 -49 30 -21 17
-42 30 -48 30 -6 0 -12 3 -14 8 -5 12 -100 72 -115 72 -7 0 -12 5 -11 11 2 7
-12 16 -30 21 -18 5 -30 13 -27 18 4 6 -1 10 -10 10 -9 0 -23 7 -32 15 -8 8
-18 13 -23 10 -4 -3 -10 2 -14 10 -3 8 -12 15 -21 15 -8 0 -15 6 -15 14 0 7
-14 16 -31 20 -17 3 -28 10 -24 16 3 5 -1 10 -9 10 -8 0 -20 8 -25 18 -7 12
-10 13 -11 3 0 -9 -9 -4 -25 13 -13 14 -28 27 -32 28 -17 4 -63 33 -63 41 0 4
-7 7 -15 7 -8 0 -15 4 -15 9 0 5 -9 13 -21 16 -12 4 -29 14 -38 23 -35 33 -61
52 -61 44 0 -4 -5 1 -11 11 -6 9 -14 15 -20 12 -5 -4 -12 1 -15 9 -3 9 -15 16
-25 16 -11 0 -19 7 -19 16 0 8 -4 12 -10 9 -5 -3 -10 -1 -10 6 0 7 -3 10 -6 6
-3 -3 -20 9 -37 26 -17 18 -33 30 -34 27 -4 -7 -63 33 -63 43 0 4 -9 7 -20 7
-10 0 -24 9 -30 20 -6 11 -16 17 -22 14 -7 -5 -9 -2 -6 8 4 8 0 15 -8 16 -8 1
-21 3 -29 4 -8 1 -12 4 -10 8 2 4 -13 17 -34 31 -22 13 -37 27 -34 32 2 4 -7
7 -21 7 -14 0 -26 5 -26 10 0 6 -11 15 -25 20 -14 5 -25 14 -25 20 0 5 -5 10
-11 10 -6 0 -16 6 -23 13 -8 6 -24 19 -36 27 -12 8 -28 21 -36 28 -7 6 -20 12
-28 12 -9 0 -16 7 -16 15 0 8 -6 15 -14 15 -8 0 -16 7 -20 15 -3 8 -12 15 -21
15 -9 0 -28 11 -42 24 -15 14 -30 23 -35 20 -4 -3 -8 0 -8 5 0 6 -5 11 -11 11
-7 0 -22 11 -34 24 -13 14 -25 23 -27 20 -3 -2 -13 5 -23 16 -10 11 -24 20
-32 20 -8 0 -12 4 -9 9 6 8 -30 25 -47 22 -5 -1 -6 2 -4 6 3 5 -1 13 -8 20
-11 10 -15 10 -18 0 -3 -7 -6 -4 -6 6 -1 9 -7 17 -15 17 -8 0 -17 7 -20 16 -3
8 -10 13 -16 9 -5 -3 -18 3 -30 15 -11 11 -24 20 -29 20 -5 0 -12 7 -15 16 -4
9 -9 14 -12 11 -6 -6 -17 2 -55 36 -10 9 -22 17 -25 17 -4 0 -13 8 -21 18 -9
10 -12 11 -7 2 4 -8 -6 -3 -23 13 -16 15 -34 27 -41 27 -7 0 -12 7 -12 16 0 9
-6 14 -13 11 -8 -3 -28 8 -45 24 -17 16 -38 29 -46 29 -9 0 -16 5 -16 11 0 5
-4 7 -10 4 -5 -3 -10 -2 -10 4 0 5 -40 9 -94 9 -74 0 -96 -3 -100 -14z m3946
-2441 c15 -14 18 -14 13 -2 -4 10 0 16 9 16 8 0 13 -5 9 -10 -3 -5 3 -6 15 -3
11 4 23 2 27 -4 3 -5 24 -10 46 -10 22 0 38 -4 35 -9 -3 -5 6 -12 22 -16 15
-3 35 -14 45 -22 9 -9 17 -12 17 -7 0 5 14 -6 30 -24 17 -18 30 -30 31 -25 0
4 4 -2 10 -15 5 -13 13 -21 18 -18 5 3 12 -5 15 -19 4 -14 11 -25 16 -25 6 0
10 -9 10 -19 0 -11 4 -21 10 -23 5 -1 11 -14 12 -28 2 -14 9 -31 16 -38 12
-13 16 -58 14 -132 -1 -19 -2 -47 -2 -63 -1 -15 -6 -25 -11 -22 -5 4 -9 0 -10
-7 -1 -7 -2 -20 -3 -28 -2 -8 -3 -23 -4 -33 -1 -10 -6 -15 -12 -12 -6 3 -10
-4 -10 -17 0 -14 -12 -34 -30 -48 -16 -14 -29 -28 -30 -32 0 -11 -40 -50 -40
-40 0 4 -6 0 -13 -8 -14 -17 -97 -64 -97 -55 0 4 -7 -1 -16 -9 -12 -13 -39
-16 -129 -16 -111 0 -149 5 -141 19 3 4 -9 8 -25 9 -17 1 -42 14 -57 27 -15
14 -31 25 -36 25 -13 0 -86 81 -86 96 0 8 -4 14 -9 14 -10 0 -21 27 -20 44 0
5 -4 12 -11 16 -6 4 -12 18 -13 31 0 13 -8 30 -17 37 -8 8 -9 11 -2 7 7 -4 12
0 12 10 0 9 -4 14 -9 10 -14 -8 -11 77 3 94 8 11 8 13 -1 8 -8 -5 -11 0 -10
13 1 11 5 20 9 20 4 0 8 13 8 29 0 37 10 62 21 55 5 -3 9 6 9 19 0 14 7 30 15
37 8 7 15 18 15 26 0 7 9 18 20 24 11 6 18 15 15 21 -4 5 -2 9 4 9 6 0 24 14
41 30 17 17 37 30 44 30 8 0 16 7 20 15 3 9 12 12 21 9 9 -4 21 1 28 10 7 10
28 17 49 18 21 1 35 5 31 11 -3 5 4 4 15 -2 15 -8 23 -8 28 1 4 7 3 8 -4 4 -7
-4 -12 -2 -12 3 0 16 11 13 32 -6z"/>
<path d="M1003 8796 c-4 -5 0 -6 8 -1 8 5 11 5 7 0 -4 -4 -27 -10 -50 -12 -24
-3 -54 -6 -68 -7 -39 -4 -42 -5 -35 -16 5 -9 -40 -16 -68 -11 -5 1 -6 -3 -2
-9 3 -5 -2 -13 -12 -16 -45 -15 -90 -38 -112 -58 -14 -12 -21 -15 -17 -6 5 9
2 8 -7 -2 -8 -10 -17 -18 -21 -18 -3 0 -15 -9 -26 -20 -12 -12 -25 -18 -31
-15 -5 4 -8 3 -7 -2 4 -11 -39 -53 -54 -53 -6 0 -9 -3 -6 -6 8 -7 -34 -50 -44
-46 -5 1 -8 -6 -8 -16 0 -10 -14 -32 -30 -50 -17 -18 -30 -40 -30 -48 0 -8 -4
-14 -9 -14 -5 0 -13 -10 -17 -22 -4 -13 -14 -29 -23 -36 -9 -8 -11 -11 -4 -8
8 5 8 0 0 -18 -7 -13 -14 -23 -18 -21 -3 2 -6 -1 -6 -8 -2 -31 -15 -82 -23
-87 -5 -3 -11 -27 -12 -53 -2 -28 -7 -46 -14 -43 -5 2 -10 -7 -10 -19 0 -13 4
-21 9 -18 5 3 4 -4 -2 -16 -16 -28 -13 -251 2 -251 7 0 7 -4 -1 -12 -7 -7 -12
-17 -12 -23 0 -5 5 -3 10 5 5 8 10 11 11 5 7 -71 10 -89 18 -99 5 -6 13 -29
17 -51 4 -22 11 -43 16 -46 6 -4 11 -18 11 -33 1 -14 6 -26 10 -26 4 0 13 -13
18 -30 6 -16 15 -27 20 -24 5 3 9 -4 9 -14 0 -11 7 -23 16 -26 9 -4 14 -9 11
-12 -9 -10 143 -174 161 -174 7 0 12 -7 12 -16 0 -8 4 -13 8 -10 5 3 18 -4 30
-14 12 -11 26 -20 32 -20 5 0 10 -4 10 -9 0 -5 14 -14 30 -20 17 -5 30 -14 30
-18 0 -5 10 -9 22 -10 11 -1 24 -7 28 -12 3 -6 18 -12 33 -13 15 -1 29 -8 31
-15 3 -8 22 -13 46 -13 25 0 40 -5 40 -12 0 -9 4 -8 10 2 8 13 10 12 10 -2 0
-10 5 -18 11 -18 5 0 7 6 3 13 -6 9 -5 9 8 0 9 -8 51 -13 114 -14 86 -1 102
-3 122 -22 12 -11 22 -32 22 -48 0 -14 7 -32 15 -39 8 -6 14 -15 13 -18 -3
-26 4 -52 12 -47 6 3 7 -1 4 -9 -3 -9 -2 -16 3 -16 5 0 10 -12 11 -27 1 -15 6
-29 11 -33 6 -3 11 -17 13 -32 2 -14 8 -32 14 -39 6 -8 11 -27 12 -44 1 -16 9
-35 17 -41 8 -6 15 -21 15 -33 0 -12 7 -33 16 -46 9 -13 13 -28 10 -34 -4 -5
1 -16 9 -24 8 -9 17 -31 19 -49 3 -18 5 -35 7 -38 1 -3 1 -9 0 -13 -1 -5 3 -6
9 -2 5 3 10 3 11 -2 2 -20 8 -46 15 -61 10 -24 11 -29 13 -57 1 -15 7 -25 16
-25 11 0 15 -11 15 -35 0 -20 6 -38 13 -41 7 -2 14 -16 15 -31 1 -14 7 -32 13
-39 6 -7 8 -18 4 -24 -3 -5 -1 -10 4 -10 6 0 11 -14 11 -31 0 -17 4 -28 10
-24 6 4 10 -7 10 -25 0 -17 6 -33 13 -36 11 -4 17 -24 20 -71 0 -7 6 -13 12
-13 6 0 12 -6 13 -12 0 -7 2 -31 3 -53 1 -22 4 -34 7 -27 8 24 18 11 20 -25 2
-21 7 -40 11 -43 5 -3 12 -21 16 -40 4 -19 12 -38 17 -41 4 -3 10 -20 11 -37
1 -18 7 -32 13 -32 7 0 15 -20 18 -45 4 -25 11 -45 17 -45 5 0 9 -16 9 -36 0
-25 4 -35 13 -31 8 3 14 -5 15 -24 1 -16 7 -41 14 -56 6 -15 13 -36 14 -45 2
-10 5 -23 6 -30 2 -7 6 -15 10 -18 3 -3 8 -19 10 -35 2 -17 7 -33 11 -36 5 -3
13 -26 18 -50 6 -24 14 -46 20 -49 5 -4 10 -25 11 -47 1 -30 5 -40 15 -36 8 3
13 2 12 -3 -1 -5 -1 -27 0 -49 1 -30 4 -36 11 -25 8 12 10 10 11 -10 1 -43 9
-75 19 -78 6 -2 10 -17 10 -33 0 -22 4 -28 13 -23 9 6 9 4 -1 -8 -10 -13 -10
-17 3 -22 8 -3 15 -16 15 -29 0 -13 5 -28 12 -35 9 -9 9 -12 -1 -12 -7 0 -9
-5 -6 -10 4 -6 11 -8 16 -5 5 4 9 -12 9 -34 0 -21 5 -41 10 -43 6 -2 13 -21
17 -43 3 -22 11 -43 17 -47 6 -4 11 -19 12 -35 3 -50 4 -54 14 -48 10 6 14
-20 11 -57 -1 -10 2 -18 8 -18 9 0 28 -65 23 -82 -1 -3 5 -12 13 -18 8 -7 15
-28 15 -46 0 -19 4 -34 10 -34 5 0 13 -18 16 -40 4 -22 10 -40 15 -40 4 0 11
-20 15 -45 3 -25 10 -45 15 -45 5 0 9 -16 9 -36 0 -24 4 -33 12 -28 7 4 8 3 4
-5 -4 -6 -3 -18 4 -26 6 -7 12 -27 12 -44 1 -16 5 -29 11 -28 9 2 15 -15 19
-65 1 -15 6 -24 10 -22 4 3 8 2 9 -3 0 -4 2 -17 5 -28 2 -11 5 -30 6 -42 1
-12 6 -19 10 -17 4 3 8 -1 9 -8 0 -7 3 -22 5 -33 3 -11 6 -26 6 -32 1 -7 5
-13 10 -13 4 0 8 -13 8 -30 0 -16 4 -30 10 -30 5 0 9 -3 8 -7 -1 -8 14 -42 36
-80 17 -30 55 -63 73 -63 7 0 13 -7 13 -15 0 -8 3 -14 8 -14 4 1 20 1 35 0 20
-1 26 -5 21 -13 -5 -8 0 -7 11 2 15 12 17 12 10 1 -6 -11 -4 -13 8 -8 10 3 17
3 17 -1 0 -11 93 -1 108 11 10 8 16 7 22 -2 6 -11 9 -11 13 0 5 12 6 12 6 0 1
-11 4 -11 18 0 9 8 14 9 10 3 -3 -6 0 -11 8 -11 8 0 12 4 10 7 -3 4 6 8 20 8
14 0 22 -4 19 -9 -3 -5 0 -9 5 -9 6 0 11 4 11 8 0 5 87 10 193 11 352 5 395 6
403 13 4 4 14 3 21 -4 11 -9 16 -9 23 1 6 11 9 11 15 1 6 -10 11 -9 21 5 11
15 16 16 29 5 8 -7 15 -8 15 -3 0 5 44 9 98 10 53 0 204 2 334 3 156 2 235 6
231 13 -3 6 -1 7 5 3 21 -13 93 -13 88 0 -3 9 3 8 21 -1 22 -12 29 -11 49 1
20 14 23 14 32 -1 8 -16 10 -16 15 -1 4 9 11 16 17 16 6 0 8 -6 4 -12 -6 -10
-5 -10 7 -1 12 10 257 13 1103 15 917 3 1088 5 1095 17 5 8 16 11 25 8 10 -4
20 1 27 14 6 11 13 19 15 16 6 -6 64 52 64 63 0 5 6 13 14 17 8 4 15 11 15 16
1 11 3 21 6 32 1 6 3 16 3 23 1 7 6 11 11 8 5 -3 9 16 9 42 1 26 7 51 14 57
15 12 18 23 20 71 1 21 6 34 14 34 8 0 11 6 8 15 -4 8 -10 12 -15 9 -5 -3 -9
1 -9 9 0 8 -7 18 -16 21 -10 4 -13 2 -8 -6 5 -7 3 -8 -7 -2 -20 12 -38 14 -45
3 -3 -5 -11 -6 -17 -2 -14 9 -40 11 -224 13 -84 1 -143 6 -143 12 0 5 -5 6
-10 3 -6 -4 -18 -1 -27 7 -14 11 -16 11 -8 -1 6 -11 4 -13 -7 -8 -9 3 -21 0
-28 -6 -10 -9 -12 -8 -7 6 5 14 3 16 -11 9 -9 -5 -23 -7 -31 -4 -7 2 -17 -2
-22 -9 -5 -8 -9 -9 -9 -3 0 15 -142 15 -152 0 -5 -7 -8 -7 -8 2 0 7 -4 11 -9
7 -5 -3 -12 -1 -16 5 -4 6 -12 5 -21 -5 -9 -8 -21 -15 -27 -15 -8 0 -7 4 2 9
10 7 7 9 -12 8 -14 -1 -23 -5 -21 -9 4 -6 -864 -10 -1791 -10 -45 0 -86 -5
-94 -12 -11 -8 -13 -8 -8 0 8 13 -49 12 -61 -1 -4 -5 0 -5 8 0 8 5 12 4 7 0
-12 -14 -149 -16 -166 -2 -12 9 -13 9 -7 0 6 -10 -37 -13 -201 -14 -291 -1
-356 -3 -370 -12 -6 -4 -14 -1 -17 5 -3 9 -8 8 -16 -5 -6 -10 -16 -14 -23 -10
-20 12 -37 12 -37 0 0 -7 -5 -5 -10 3 -6 10 -10 11 -10 3 0 -15 -21 -13 -32 2
-5 6 -8 6 -8 -1 0 -6 -11 -11 -25 -11 -16 0 -22 4 -18 11 5 8 3 8 -8 0 -8 -7
-78 -12 -177 -13 -161 -2 -163 -1 -171 21 -5 13 -7 26 -4 31 2 4 -1 7 -6 7 -6
0 -11 14 -11 30 0 17 -4 30 -10 30 -9 0 -26 67 -21 85 1 5 -4 14 -13 20 -8 7
-16 28 -18 48 -1 20 -5 37 -8 37 -3 0 -11 14 -17 30 -6 17 -7 28 -2 24 15 -9
10 8 -7 27 -8 9 -18 32 -21 51 -2 18 -9 35 -14 36 -5 2 -9 17 -9 34 0 16 -7
36 -15 44 -8 9 -15 28 -15 42 0 15 -6 37 -14 48 -8 11 -16 33 -17 49 -2 17 -7
32 -11 35 -4 3 -9 17 -12 32 -2 14 -10 36 -16 49 -7 12 -14 36 -17 53 -3 17
-9 33 -14 36 -4 3 -9 22 -11 43 -1 20 -7 37 -13 37 -6 0 -12 11 -13 25 -3 38
-6 49 -16 57 -5 3 -12 26 -16 50 -3 25 -11 42 -18 41 -6 -2 -9 4 -6 12 4 9 1
22 -6 30 -10 12 -10 15 0 15 9 0 8 6 -4 19 -9 10 -18 33 -21 51 -2 18 -8 36
-12 39 -4 3 -10 17 -12 31 -1 14 -7 33 -12 43 -6 9 -7 23 -3 29 4 7 3 8 -4 4
-8 -5 -12 3 -12 23 0 16 -7 36 -15 45 -8 8 -15 27 -15 43 0 16 -5 34 -10 39
-6 6 -13 24 -16 40 -3 15 -11 35 -17 43 -10 12 -9 13 2 7 9 -6 8 -1 -3 16 -9
13 -17 36 -18 50 -1 15 -6 24 -10 22 -7 -5 -13 36 -9 59 1 5 -3 6 -8 2 -8 -4
-24 43 -26 78 0 4 -6 11 -12 15 -7 5 -14 24 -15 44 -2 19 -7 34 -13 32 -5 -2
-11 6 -11 19 -1 13 -9 41 -19 60 -9 20 -14 44 -11 53 4 12 2 15 -9 10 -12 -4
-15 3 -16 32 -1 20 -1 41 0 45 1 5 -3 6 -8 2 -6 -3 -15 14 -22 39 -6 25 -15
43 -20 40 -5 -3 -9 13 -9 36 0 29 -3 39 -12 34 -8 -5 -9 -2 -5 9 3 10 3 17 -2
17 -5 0 -8 12 -8 26 0 15 -6 30 -12 34 -7 4 -15 22 -18 41 -2 19 -9 36 -14 37
-5 2 -9 15 -9 29 0 13 -6 31 -14 38 -7 8 -16 32 -20 55 -3 23 -11 38 -16 35
-6 -4 -10 6 -10 23 0 16 -7 43 -16 61 -9 17 -13 38 -11 46 3 7 0 16 -8 18 -7
3 -16 21 -20 39 -4 18 -11 35 -16 38 -5 3 -9 21 -11 39 -1 18 -7 35 -12 38 -5
4 -6 1 -1 -7 5 -8 4 -11 -1 -7 -5 3 -11 20 -12 37 -1 18 -9 39 -17 47 -13 12
-21 57 -16 86 1 5 -3 6 -8 2 -6 -3 -13 10 -17 30 -3 19 -10 35 -15 35 -5 0 -8
3 -7 8 4 15 -14 72 -23 72 -5 0 -9 14 -9 30 0 17 -5 30 -11 30 -5 0 -7 5 -4
10 3 6 1 10 -6 10 -7 0 -10 2 -7 6 3 3 2 21 -2 41 -7 30 -6 36 11 40 10 3 19
12 19 19 0 8 4 14 10 14 15 0 50 33 44 42 -3 4 1 8 9 8 8 0 18 7 21 16 3 8 10
12 16 9 5 -3 10 0 10 7 0 7 12 24 25 37 14 13 25 29 25 37 0 8 7 14 16 14 8 0
12 4 9 10 -3 5 3 17 15 27 11 10 20 30 20 46 0 22 4 28 15 23 11 -4 15 1 15
17 0 12 7 31 15 41 8 11 15 30 15 44 0 13 4 21 8 18 5 -3 9 0 9 7 2 30 16 92
22 97 12 10 14 37 16 200 1 95 -3 173 -9 185 -10 21 -15 36 -19 70 -1 11 -8
24 -14 28 -7 4 -13 18 -13 30 0 13 -7 33 -16 45 -8 12 -12 22 -8 22 3 0 1 6
-5 13 -6 8 -8 17 -4 20 3 4 -1 7 -10 7 -11 0 -17 8 -17 21 0 12 -14 37 -30 56
-17 19 -27 39 -24 45 5 8 1 9 -10 5 -9 -4 -15 -3 -12 2 7 11 -47 71 -64 71 -7
0 -10 3 -7 6 8 8 -57 74 -72 74 -6 0 -11 4 -11 10 0 5 -11 12 -25 16 -14 3
-25 13 -25 21 0 8 -4 12 -8 9 -5 -3 -16 4 -25 15 -10 11 -23 17 -29 13 -6 -4
-16 0 -22 9 -7 8 -23 17 -36 19 -14 2 -24 9 -22 16 1 6 -1 11 -5 11 -28 -5
-83 3 -79 10 7 11 -27 21 -74 21 -27 0 -32 3 -20 10 11 8 8 9 -12 4 -16 -3
-28 -2 -28 3 0 5 -9 9 -20 10 -13 1 -18 -2 -14 -9 5 -7 2 -8 -7 -2 -19 11
-239 12 -246 0z m64 -480 c-4 -10 -1 -13 9 -9 7 3 14 8 14 13 0 4 18 7 40 7
22 0 40 -4 40 -10 0 -5 6 -4 14 2 10 8 20 8 42 -4 16 -8 39 -15 52 -15 13 0
30 -7 38 -15 9 -8 24 -15 35 -15 11 0 19 -7 19 -16 0 -8 5 -12 11 -9 12 8 51
-34 43 -46 -3 -5 2 -6 10 -3 9 4 18 -1 22 -10 3 -9 11 -13 17 -9 5 3 7 1 3 -5
-3 -6 -2 -13 4 -17 6 -4 8 -11 4 -16 -3 -5 0 -8 8 -7 7 2 14 -8 16 -22 2 -14
10 -30 17 -36 8 -6 17 -25 20 -42 3 -17 9 -41 13 -54 14 -37 7 -169 -9 -179
-8 -5 -10 -9 -4 -9 5 0 4 -5 -2 -11 -6 -6 -9 -18 -6 -25 3 -8 -2 -17 -11 -20
-9 -3 -16 -14 -16 -23 0 -10 -8 -26 -18 -37 -10 -11 -17 -25 -14 -32 2 -6 -3
-12 -12 -12 -9 0 -16 -7 -16 -15 0 -8 -7 -15 -15 -15 -8 0 -19 -9 -25 -20 -6
-11 -16 -17 -26 -13 -9 3 -14 0 -12 -8 2 -8 -4 -14 -12 -14 -8 0 -18 -5 -22
-11 -4 -7 -24 -15 -43 -18 -19 -4 -35 -11 -35 -15 0 -5 -47 -9 -105 -10 -62
-1 -105 2 -105 8 0 5 -18 12 -40 16 -22 4 -44 14 -50 23 -5 10 -10 13 -10 9 0
-5 -20 6 -45 24 -29 21 -44 38 -40 47 4 11 2 12 -7 4 -10 -7 -18 -3 -33 16
-19 27 -19 27 0 13 11 -7 5 0 -12 18 -18 17 -33 37 -33 44 0 7 -7 22 -15 33
-8 12 -12 24 -9 27 3 3 -2 20 -11 37 -12 23 -13 30 -3 24 11 -6 11 -5 0 8 -15
19 -14 96 2 117 8 11 8 13 -1 7 -15 -8 -17 6 -4 20 6 5 13 24 16 43 7 41 14
53 25 46 4 -3 6 3 3 13 -2 11 3 26 11 35 9 8 16 20 16 26 0 6 7 11 16 11 8 0
13 4 9 9 -3 6 4 15 15 21 11 6 18 15 15 21 -4 5 3 9 15 9 12 0 19 4 16 8 -3 5
15 19 39 31 25 12 47 26 50 32 4 5 20 9 36 9 17 0 32 6 35 15 4 8 8 15 11 15
3 0 3 -7 0 -14z"/>
<path d="M6846 8258 c3 -5 -9 -8 -25 -8 -17 0 -31 -5 -31 -11 0 -5 -4 -7 -10
-4 -5 3 -10 1 -10 -4 0 -6 -9 -11 -19 -11 -11 0 -23 -5 -27 -12 -5 -7 -2 -8 7
-3 10 5 11 5 4 -3 -5 -6 -16 -12 -24 -14 -8 -2 -33 -22 -56 -45 -24 -23 -46
-39 -49 -36 -3 4 -6 1 -6 -4 0 -6 -18 -24 -40 -41 -40 -29 -40 -29 -21 -51 10
-11 23 -21 30 -21 6 0 11 -7 11 -16 0 -8 5 -12 10 -9 6 3 10 1 10 -5 0 -6 4
-9 9 -5 6 3 13 0 18 -7 11 -18 86 -73 96 -70 4 1 7 -5 7 -13 0 -8 6 -15 13
-15 7 0 20 -9 30 -20 10 -12 23 -18 30 -14 6 4 9 4 5 0 -8 -9 27 -46 45 -46 7
0 18 -9 25 -20 7 -12 17 -18 22 -15 6 3 10 -1 10 -9 0 -9 7 -16 15 -16 8 0 15
-4 15 -9 0 -5 20 -20 45 -32 25 -12 45 -26 45 -31 0 -4 7 -8 16 -8 8 0 12 -4
9 -10 -3 -6 1 -7 9 -4 9 3 16 1 16 -4 0 -6 9 -14 20 -17 11 -4 18 -11 15 -16
-4 -5 2 -9 12 -9 10 0 33 -14 52 -30 18 -16 37 -27 42 -24 5 3 12 -2 15 -10 3
-9 12 -16 20 -16 8 0 14 -4 14 -9 0 -5 14 -14 30 -21 17 -7 30 -16 30 -21 0
-5 6 -9 14 -9 8 0 17 -7 20 -16 3 -8 10 -13 16 -9 5 3 17 -3 27 -15 10 -11 23
-20 31 -20 7 0 10 -4 7 -10 -3 -5 3 -10 13 -10 11 0 22 -7 26 -15 3 -8 15 -15
26 -15 11 0 20 -7 20 -15 0 -14 20 -20 45 -15 5 1 7 -2 3 -6 -7 -7 28 -44 42
-44 4 0 17 -9 30 -20 12 -11 27 -17 31 -14 5 3 9 0 9 -6 0 -6 11 -15 25 -20
14 -5 25 -14 25 -20 0 -5 5 -10 10 -10 11 0 60 -33 94 -62 11 -10 26 -18 33
-18 7 0 13 -5 13 -11 0 -5 4 -8 9 -5 5 3 12 -1 15 -10 3 -8 10 -12 16 -9 6 3
13 -1 16 -9 3 -9 15 -16 26 -16 10 0 16 -4 13 -10 -3 -5 6 -12 20 -16 14 -3
25 -12 25 -20 0 -8 3 -13 8 -13 19 3 33 -2 27 -11 -3 -5 1 -10 10 -10 21 0 76
-41 69 -51 -3 -5 2 -6 10 -3 8 3 24 -4 35 -15 12 -12 25 -21 30 -21 5 0 11 -3
13 -7 5 -13 102 -76 116 -76 6 0 12 -6 12 -14 0 -7 4 -13 10 -13 5 0 47 -25
94 -55 46 -30 89 -55 94 -55 6 0 14 -5 18 -12 5 -7 3 -8 -6 -3 -9 5 -11 4 -6
-4 4 -6 11 -9 16 -6 4 2 19 -4 33 -15 14 -11 32 -20 41 -20 9 0 16 -7 16 -15
0 -8 3 -14 8 -14 19 3 33 -2 28 -10 -6 -9 41 -26 59 -22 6 2 7 -1 2 -5 -8 -8
82 -70 96 -66 4 1 7 -3 7 -9 0 -5 5 -7 10 -4 6 3 13 -1 16 -9 3 -9 12 -16 20
-16 8 0 14 -4 14 -9 0 -4 22 -19 50 -32 32 -15 45 -26 37 -31 -7 -5 -1 -8 16
-8 15 0 30 -7 33 -15 4 -8 15 -15 25 -15 11 0 22 -7 25 -15 4 -8 12 -15 20
-15 8 0 14 -4 14 -10 0 -5 5 -10 10 -10 12 0 73 -41 78 -52 2 -5 12 -8 22 -8
9 0 23 -7 30 -15 7 -8 19 -15 27 -15 7 0 16 -7 19 -15 4 -8 12 -15 20 -15 8 0
14 -4 14 -10 0 -5 8 -10 18 -10 10 0 24 -9 32 -19 7 -11 17 -18 22 -15 4 3 11
-2 14 -10 3 -9 10 -14 14 -11 4 2 18 -4 30 -15 13 -11 29 -20 35 -20 7 0 15
-7 19 -15 3 -8 15 -15 27 -15 12 0 19 -3 16 -7 -7 -7 20 -25 66 -44 15 -6 27
-15 27 -20 0 -5 7 -9 14 -9 8 0 27 -11 42 -25 16 -14 44 -33 63 -42 20 -10 38
-20 41 -23 14 -17 70 -50 84 -50 18 0 18 0 22 -48 2 -25 -1 -31 -10 -23 -9 8
-12 4 -13 -12 -1 -60 -4 -77 -15 -89 -7 -7 -13 -22 -14 -33 -2 -33 -9 -60 -17
-66 -4 -3 -9 -22 -10 -42 -1 -20 -8 -39 -14 -42 -8 -2 -13 -22 -13 -44 0 -28
-5 -43 -17 -50 -14 -8 -15 -10 -3 -11 11 0 12 -2 3 -8 -7 -4 -13 -26 -14 -49
-2 -23 -6 -40 -11 -37 -4 3 -8 -1 -9 -8 -2 -38 -11 -73 -21 -79 -5 -3 -9 -9
-9 -13 1 -3 1 -7 0 -8 0 -2 -2 -20 -3 -42 -2 -21 -8 -41 -13 -45 -6 -3 -14
-25 -18 -48 -4 -24 -10 -43 -14 -43 -4 0 -8 -21 -10 -47 -1 -28 -8 -53 -16
-59 -8 -6 -15 -24 -15 -41 0 -16 -5 -34 -12 -41 -6 -6 -13 -30 -15 -54 -3 -23
-9 -51 -16 -62 -6 -12 -12 -30 -13 -41 -2 -31 -8 -49 -18 -56 -4 -4 -9 -23 -9
-43 -1 -19 -7 -38 -14 -40 -8 -4 -13 -24 -13 -56 0 -30 -4 -49 -9 -45 -6 3
-13 -11 -16 -32 -3 -21 -11 -46 -16 -57 -8 -14 -8 -16 3 -10 7 4 5 -2 -4 -13
-10 -11 -18 -34 -18 -51 0 -18 -5 -32 -11 -32 -6 0 -9 -7 -5 -15 3 -8 2 -15
-2 -15 -4 0 -8 -14 -8 -31 -1 -17 -5 -34 -10 -38 -10 -7 -14 -21 -19 -68 -1
-19 -8 -39 -13 -46 -6 -7 -12 -34 -13 -60 -2 -27 -7 -51 -12 -54 -6 -4 -7 -1
-2 7 5 8 4 11 -1 7 -6 -3 -11 -23 -12 -44 -4 -58 -9 -78 -18 -76 -5 1 -10 -22
-12 -50 -2 -28 -6 -54 -10 -57 -8 -6 -10 -13 -15 -65 -2 -20 -8 -40 -13 -43
-9 -7 -16 -37 -18 -82 0 -14 -8 -31 -16 -38 -13 -12 -13 -12 0 -6 12 7 13 5 2
-8 -6 -8 -13 -34 -14 -57 -1 -26 -6 -40 -12 -38 -7 3 -12 -15 -14 -47 -2 -28
-8 -53 -14 -57 -9 -6 -12 -21 -22 -104 -1 -11 -6 -19 -11 -18 -6 1 -11 -20
-11 -45 -1 -26 -7 -60 -13 -77 -6 -16 -13 -47 -16 -68 -3 -21 -10 -35 -14 -33
-4 3 -9 -16 -10 -41 -1 -26 -6 -50 -12 -54 -12 -7 -17 -29 -18 -76 -1 -17 -8
-39 -17 -47 -11 -11 -12 -16 -3 -16 10 0 10 -3 1 -12 -7 -7 -12 -25 -12 -41 0
-20 -4 -26 -12 -21 -10 6 -10 4 0 -8 9 -11 10 -17 2 -20 -7 -2 -13 -21 -15
-43 -2 -22 -4 -41 -6 -42 -1 -2 -2 -7 -3 -12 0 -5 -4 -13 -8 -17 -5 -4 -8 -21
-8 -39 0 -17 -6 -37 -12 -44 -11 -11 -10 -12 2 -6 8 4 4 -3 -10 -17 -28 -28
-50 -32 -43 -9 4 14 3 14 -6 0 -7 -11 -25 -16 -53 -17 -58 -1 -118 -10 -132
-20 -6 -4 -29 -9 -51 -11 -22 -1 -44 -8 -50 -14 -5 -7 -21 -13 -35 -15 -14 -2
-30 -10 -37 -18 -6 -8 -20 -16 -32 -17 -12 -1 -21 -5 -21 -9 0 -4 -5 -8 -11
-8 -6 0 -28 -13 -49 -30 -21 -17 -43 -30 -48 -30 -6 0 -14 -5 -18 -12 -5 -7
-3 -8 6 -3 9 5 11 4 6 -3 -4 -7 -16 -12 -27 -12 -11 0 -17 -4 -14 -10 3 -5 2
-10 -4 -10 -14 0 -71 -57 -71 -70 0 -6 -5 -8 -12 -4 -6 4 -8 3 -5 -3 3 -5 -10
-26 -29 -47 -19 -20 -32 -41 -29 -46 4 -6 -1 -10 -9 -10 -14 0 -21 -18 -17
-42 0 -5 -6 -8 -14 -8 -8 0 -15 -9 -15 -20 0 -33 -1 -35 -16 -43 -8 -4 -14
-22 -14 -38 0 -17 -4 -28 -9 -25 -10 6 -21 -26 -21 -61 0 -13 -5 -23 -11 -23
-5 0 -8 -4 -4 -9 3 -5 1 -12 -4 -15 -5 -3 -10 -63 -10 -133 -1 -78 -6 -130
-13 -134 -7 -5 -7 -8 0 -10 6 -2 13 -34 14 -71 2 -38 6 -68 10 -68 6 0 12 -19
23 -80 3 -14 9 -26 15 -28 5 -2 10 -12 10 -22 0 -10 6 -25 13 -32 15 -15 17
-20 17 -48 0 -11 7 -20 15 -20 8 0 14 -3 14 -7 -4 -23 2 -43 11 -38 6 3 10 0
10 -8 0 -8 12 -27 28 -42 15 -16 20 -25 12 -20 -8 4 6 -13 33 -39 26 -26 47
-52 47 -57 0 -5 4 -9 10 -9 5 0 23 -14 40 -30 17 -17 35 -28 41 -25 5 4 9 -1
9 -9 0 -9 6 -16 14 -16 8 0 17 -7 20 -16 4 -9 9 -14 13 -11 10 10 44 -13 37
-25 -4 -6 -3 -8 4 -4 6 3 18 -1 26 -10 9 -8 16 -13 16 -9 0 3 13 -1 29 -9 16
-9 31 -12 35 -9 3 4 6 2 6 -4 0 -6 19 -13 41 -16 23 -3 45 -10 48 -16 4 -6 30
-11 59 -12 30 -1 52 -7 52 -13 0 -6 5 -4 10 4 6 10 10 11 10 2 0 -6 3 -11 8
-11 4 1 12 0 17 -1 6 -2 58 -3 116 -4 72 -1 105 2 102 10 -2 7 17 11 53 13 33
1 63 8 71 17 12 12 58 20 86 15 5 -1 6 3 2 9 -6 9 10 14 43 13 6 -1 12 5 12
13 0 8 9 14 20 14 11 0 20 6 20 13 0 8 4 7 10 -3 8 -13 10 -12 10 3 0 15 11
22 33 18 4 0 7 6 7 15 0 8 4 13 9 10 4 -3 19 3 31 14 13 11 27 20 32 20 5 0 7
3 5 8 -2 4 4 15 15 24 10 10 18 16 18 13 0 -3 18 13 40 36 22 23 40 46 40 51
0 5 5 6 10 3 6 -3 10 1 10 10 0 8 7 18 15 21 8 4 15 12 15 20 0 8 5 14 11 14
5 0 8 4 5 8 -3 5 3 18 12 28 23 25 62 100 62 120 0 8 5 12 10 9 6 -4 10 -3 9
2 -4 26 2 73 10 69 11 -7 21 28 21 77 0 25 4 36 11 31 8 -4 8 0 0 15 -9 16 -9
20 2 15 12 -4 14 20 14 135 0 78 -3 141 -8 141 -4 0 -10 19 -14 43 -12 80 -17
97 -26 91 -8 -4 -15 43 -10 69 1 5 -3 6 -9 2 -5 -3 -10 0 -11 7 -2 34 -9 52
-23 60 -9 5 -16 17 -16 27 0 10 -10 29 -22 43 -13 14 -24 32 -26 39 -2 8 -10
18 -18 22 -8 4 -14 13 -14 19 0 6 -18 28 -40 49 -22 22 -40 43 -40 49 0 5 -7
10 -15 10 -8 0 -15 5 -15 10 0 6 -7 10 -15 10 -8 0 -15 7 -15 15 0 8 -9 15
-21 15 -11 0 -18 4 -15 9 3 5 -3 11 -14 14 -28 7 -35 34 -20 76 7 20 14 47 15
61 1 14 5 31 9 38 4 7 4 12 -1 12 -4 0 -2 4 4 8 7 4 15 28 18 52 3 24 9 47 13
50 5 3 9 25 11 50 1 25 7 47 12 48 5 2 7 8 3 13 -3 5 -1 9 4 9 5 0 10 19 10
42 1 24 5 44 11 46 5 2 7 10 4 18 -3 8 0 14 6 14 6 0 11 17 11 38 0 21 5 43
10 48 6 6 12 30 14 53 2 24 8 46 13 49 6 4 9 15 7 25 -1 9 1 17 6 17 4 0 6 11
5 25 -2 14 1 27 6 31 5 3 7 10 4 15 -4 5 -2 9 2 9 5 0 10 15 11 33 4 51 11 80
21 86 5 4 11 28 12 54 2 26 6 47 11 47 4 0 7 3 7 8 -1 4 0 10 1 15 6 17 8 28
9 51 0 14 7 31 14 38 6 7 12 27 12 43 0 37 14 87 24 81 4 -3 6 11 6 30 -1 19
4 47 12 61 7 14 13 40 13 58 0 38 9 67 19 61 3 -2 7 19 9 47 2 32 9 56 20 65
9 7 11 10 3 6 -10 -5 -12 -3 -5 7 9 14 11 23 16 69 2 14 6 27 9 30 6 5 20 67
22 98 0 6 4 12 9 12 4 0 8 12 8 28 0 15 7 40 15 56 8 15 15 42 15 60 0 17 7
40 15 50 8 11 15 37 15 59 0 23 4 36 10 32 6 -3 10 -3 11 2 0 4 2 17 4 28 2
11 5 31 7 45 2 14 6 27 10 30 3 3 9 25 13 50 4 25 11 48 17 51 5 3 9 8 7 10
-6 10 12 89 21 89 6 0 10 15 10 34 0 39 9 68 19 62 4 -3 8 14 10 37 1 23 7 45
14 49 7 4 8 8 3 8 -6 0 -5 5 2 12 7 7 12 27 12 45 0 18 4 33 8 33 5 0 9 6 10
13 2 23 8 46 14 53 4 3 4 12 1 20 -3 8 0 21 6 28 7 8 13 30 14 49 1 19 5 33 9
31 3 -2 9 15 13 38 4 24 14 51 23 61 8 9 12 20 9 24 -4 3 -7 1 -7 -5 0 -7 -5
-12 -12 -12 -6 0 -4 7 5 18 10 10 17 31 17 46 0 15 7 34 15 42 8 9 15 28 15
43 0 15 3 31 7 35 4 3 8 12 9 19 2 7 6 25 9 42 3 16 12 36 18 44 9 12 9 13 0
8 -8 -5 -7 1 2 20 8 15 12 36 9 46 -3 10 0 17 8 17 9 0 15 14 16 38 4 55 7 71
17 79 4 5 5 1 0 -7 -5 -9 -5 -12 1 -7 10 10 11 14 13 63 0 21 5 33 11 29 6 -3
11 2 11 12 4 55 11 86 22 94 5 3 8 23 7 45 -1 63 -3 74 -12 74 -4 0 -8 9 -8
21 0 20 -36 80 -52 87 -4 2 -8 10 -8 18 0 8 -6 14 -14 14 -8 0 -17 7 -20 16
-4 9 -9 14 -12 11 -6 -6 -17 2 -55 36 -10 9 -19 14 -19 11 0 -3 -14 5 -32 18
-18 12 -39 23 -47 25 -9 1 -17 7 -19 12 -2 6 -10 11 -18 11 -8 0 -14 4 -14 9
0 5 -13 14 -30 20 -16 5 -30 15 -30 20 0 6 -7 11 -15 11 -8 0 -15 4 -15 9 0 5
-11 12 -25 15 -14 4 -23 11 -20 15 3 5 -8 12 -25 16 -16 4 -30 11 -30 16 0 5
-7 9 -15 9 -9 0 -18 7 -21 15 -4 8 -13 15 -21 15 -8 0 -21 6 -28 13 -33 29
-46 38 -67 48 -45 20 -68 36 -61 42 3 4 -4 7 -16 7 -12 0 -24 7 -27 15 -4 8
-17 15 -30 15 -14 0 -23 5 -22 12 2 7 -7 14 -19 16 -13 2 -23 10 -23 18 0 8
-4 13 -9 10 -5 -3 -26 7 -48 22 -64 45 -77 52 -105 65 -16 6 -28 15 -28 19 0
4 -6 8 -14 8 -8 0 -17 7 -20 16 -3 8 -10 13 -15 10 -7 -5 -18 2 -67 43 -6 5
-20 11 -30 13 -10 2 -18 9 -17 15 1 6 -11 14 -27 18 -17 4 -28 11 -24 16 3 5
-4 9 -15 9 -12 0 -21 3 -21 8 0 4 -13 13 -28 20 -16 6 -38 21 -50 32 -12 11
-28 20 -35 20 -8 0 -20 7 -27 15 -7 8 -19 15 -26 15 -7 0 -11 6 -8 13 3 8 -4
13 -18 14 -12 1 -28 9 -34 18 -7 9 -16 16 -21 15 -11 -2 -63 33 -63 43 0 4 -8
7 -19 7 -10 0 -24 7 -31 15 -7 8 -19 15 -27 15 -7 0 -16 7 -19 15 -4 8 -15 15
-25 15 -10 0 -19 7 -19 15 0 8 -3 14 -7 13 -8 -2 -62 30 -73 42 -3 4 -13 9
-23 13 -11 4 -15 12 -11 18 4 7 3 9 -3 6 -13 -8 -66 17 -56 26 3 4 -1 7 -10 7
-9 0 -17 5 -17 10 0 6 -7 10 -15 10 -8 0 -15 5 -15 11 0 6 -7 8 -16 5 -8 -3
-12 -2 -9 4 3 6 -1 10 -9 10 -9 0 -16 7 -16 16 0 8 -4 13 -10 9 -5 -3 -18 3
-30 15 -11 11 -20 17 -20 14 0 -4 -6 -1 -13 5 -8 6 -16 10 -18 8 -2 -1 -3 0
-2 2 3 5 -56 47 -94 67 -18 9 -33 20 -33 24 0 4 -9 10 -21 13 -12 3 -19 10
-16 14 3 5 -4 10 -16 10 -11 1 -25 9 -29 18 -5 8 -15 15 -23 15 -7 0 -15 3
-17 8 -5 11 -66 52 -78 52 -6 0 -8 5 -5 10 3 6 -3 10 -14 10 -12 0 -21 5 -21
10 0 6 -11 15 -25 20 -14 5 -25 14 -25 20 0 6 -4 9 -10 5 -5 -3 -18 3 -28 13
-10 10 -26 21 -35 25 -9 3 -17 11 -17 18 0 6 -7 8 -16 5 -11 -4 -18 1 -21 15
-3 12 -11 18 -19 15 -8 -3 -14 -1 -14 5 0 5 -13 15 -30 20 -16 6 -27 15 -24
20 3 5 -1 9 -9 9 -8 0 -20 7 -27 15 -7 8 -21 15 -31 15 -11 0 -19 7 -19 15 0
8 -7 15 -15 15 -8 0 -15 3 -15 8 0 7 -30 25 -62 38 -10 3 -18 13 -18 20 0 8
-10 14 -22 14 -13 0 -36 14 -52 30 -16 17 -33 30 -38 30 -5 0 -6 4 -3 10 3 6
-1 7 -9 4 -9 -3 -16 -1 -16 6 0 6 -4 9 -9 6 -5 -3 -11 1 -15 9 -3 8 -12 15
-20 15 -7 0 -16 7 -20 15 -3 8 -15 15 -26 15 -12 0 -19 4 -16 9 5 8 -29 25
-46 22 -5 -1 -7 4 -5 11 1 6 -7 14 -18 16 -11 2 -27 12 -35 21 -8 9 -27 22
-42 30 -16 8 -28 18 -28 23 0 4 -7 8 -15 8 -9 0 -18 7 -21 15 -4 8 -10 13 -14
10 -5 -3 -15 2 -24 10 -8 8 -29 18 -45 21 -19 4 -28 11 -24 18 4 6 -2 4 -12
-4 -11 -9 -16 -10 -11 -2 4 7 1 12 -8 12 -9 0 -16 -6 -16 -12 0 -10 -2 -10 -8
-2 -4 7 -21 11 -39 11 -17 -1 -29 -5 -27 -9z m2264 -6520 c0 2 8 -2 17 -9 14
-12 16 -12 9 1 -4 8 -1 7 7 -3 8 -10 25 -19 36 -20 12 -1 20 -6 17 -12 -2 -6
6 -12 17 -13 12 0 27 -8 33 -17 6 -8 20 -15 30 -16 12 0 14 -3 6 -6 -10 -4 -7
-9 10 -17 12 -6 24 -20 26 -30 2 -10 15 -29 28 -41 13 -12 24 -30 24 -39 0
-10 7 -24 15 -32 8 -9 15 -27 15 -42 0 -15 4 -34 10 -42 5 -9 5 -19 -2 -27 -7
-9 -6 -14 6 -19 9 -3 16 -13 16 -21 0 -8 -4 -12 -8 -9 -5 3 -9 -1 -9 -9 0 -8
4 -12 9 -9 4 3 8 1 8 -5 0 -5 -5 -11 -12 -13 -6 -2 -13 -24 -15 -49 -2 -25
-11 -49 -20 -57 -14 -10 -14 -12 -2 -13 10 0 10 -2 2 -6 -7 -2 -13 -13 -13
-24 0 -10 -4 -19 -9 -19 -5 0 -13 -9 -16 -21 -8 -25 -40 -59 -56 -59 -5 0 -7
-5 -4 -10 3 -6 -2 -13 -12 -17 -10 -4 -27 -15 -38 -25 -11 -10 -30 -21 -42
-24 -13 -4 -23 -10 -23 -16 0 -5 -4 -7 -9 -3 -5 3 -12 1 -16 -5 -3 -5 -18 -10
-32 -10 -15 0 -34 -7 -44 -16 -13 -12 -19 -12 -25 -3 -5 8 -3 10 6 4 9 -6 11
-4 5 5 -6 10 -10 10 -19 -2 -13 -18 -98 -17 -104 1 -2 6 -19 11 -39 11 -19 0
-41 7 -49 15 -9 8 -24 15 -35 15 -10 0 -19 5 -19 10 0 6 -8 13 -17 17 -22 7
-103 90 -103 104 0 6 -4 7 -10 4 -5 -3 -10 3 -10 13 0 11 -7 22 -15 26 -9 3
-15 18 -15 34 0 16 -7 35 -15 42 -19 16 -22 236 -3 242 11 4 18 24 21 59 1 9
6 15 12 13 6 -3 11 4 12 14 1 17 103 134 103 119 0 -4 9 2 20 13 11 11 27 20
36 20 8 0 12 5 9 10 -3 6 4 10 17 10 13 0 30 6 36 13 15 14 139 25 200 16 23
-3 42 -4 42 -1z"/>
<path d="M8990 922 c0 -5 7 -9 15 -9 8 0 12 4 9 9 -3 4 -9 8 -15 8 -5 0 -9 -4
-9 -8z"/>
<path d="M5983 7695 c-13 -5 -23 -13 -23 -18 0 -4 -4 -6 -9 -3 -5 3 -25 -8
-46 -24 -21 -16 -42 -27 -48 -23 -5 3 -7 1 -3 -5 3 -6 -3 -13 -14 -17 -11 -3
-20 -10 -20 -15 0 -4 -13 -13 -30 -19 -16 -5 -30 -15 -30 -20 0 -6 -7 -11 -16
-11 -8 0 -12 -4 -9 -10 3 -5 -1 -10 -9 -10 -9 0 -16 -5 -16 -11 0 -6 -7 -8
-16 -5 -8 3 -13 2 -10 -3 3 -5 -4 -11 -15 -14 -12 -3 -18 -10 -14 -16 3 -6 -1
-11 -9 -11 -9 0 -25 -9 -36 -20 -12 -12 -25 -18 -29 -15 -5 2 -12 -2 -15 -11
-3 -8 -10 -12 -16 -9 -5 3 -10 -1 -10 -9 0 -9 -7 -16 -15 -16 -8 0 -15 -5 -15
-11 0 -5 -4 -7 -10 -4 -5 3 -10 1 -10 -4 0 -6 -6 -11 -14 -11 -8 0 -16 -7 -20
-15 -3 -8 -16 -15 -28 -15 -19 0 -20 -2 -8 -10 12 -7 8 -11 -17 -16 -18 -4
-30 -10 -27 -15 2 -5 -7 -11 -21 -15 -13 -3 -22 -10 -19 -15 3 -5 0 -9 -5 -9
-6 0 -13 0 -16 0 -3 0 -14 -9 -26 -21 -11 -11 -35 -27 -52 -34 -18 -8 -25 -15
-17 -15 8 0 0 -7 -17 -15 -18 -8 -33 -19 -33 -25 0 -6 -4 -9 -9 -5 -6 3 -14
-3 -20 -12 -6 -10 -11 -13 -11 -8 0 7 -3 7 -8 0 -12 -17 -80 -65 -91 -65 -6 0
-10 -6 -8 -12 1 -7 -8 -14 -20 -16 -13 -2 -23 -10 -23 -18 0 -8 -5 -14 -10
-14 -6 0 -20 -9 -32 -20 -12 -10 -26 -17 -31 -13 -6 3 -7 1 -3 -5 7 -11 -6
-17 -27 -13 -5 1 -6 -3 -2 -9 3 -5 -2 -13 -12 -17 -9 -4 -28 -18 -40 -31 -13
-14 -23 -21 -23 -16 0 5 -5 1 -11 -9 -6 -9 -14 -15 -20 -12 -5 4 -9 1 -9 -4 0
-6 -7 -11 -15 -11 -8 0 -15 -7 -15 -15 0 -8 -6 -15 -14 -15 -8 0 -16 -7 -20
-15 -3 -8 -11 -15 -18 -15 -8 0 -28 -13 -46 -30 -18 -16 -36 -30 -40 -30 -4 0
-14 -9 -22 -20 -16 -22 -36 -28 -24 -7 4 6 -12 -8 -37 -33 -25 -25 -51 -46
-58 -48 -7 -1 -20 -9 -28 -17 -8 -8 -19 -15 -24 -15 -6 0 -8 -4 -5 -9 3 -5 -3
-11 -14 -14 -11 -3 -20 -13 -20 -22 0 -9 -4 -13 -10 -10 -9 6 -14 -14 -11 -43
1 -7 -4 -11 -11 -10 -8 2 -13 -15 -16 -56 -3 -47 -1 -57 10 -50 9 5 9 2 -2
-11 -8 -10 -10 -16 -3 -12 7 5 14 -7 19 -35 4 -24 7 -46 6 -50 -1 -5 2 -8 8
-8 5 0 10 -7 10 -15 0 -8 7 -35 16 -61 8 -25 16 -59 16 -75 1 -15 5 -26 9 -23
12 7 18 -9 20 -55 2 -23 7 -45 13 -48 5 -4 6 -1 1 7 -5 8 -4 11 1 7 6 -3 11
-25 13 -49 1 -23 6 -45 12 -48 5 -4 11 -21 13 -38 3 -17 7 -36 11 -42 3 -5 8
-20 11 -32 3 -13 7 -30 9 -38 2 -8 4 -21 4 -28 1 -7 6 -10 11 -7 6 4 10 -9 10
-32 0 -21 7 -47 15 -57 8 -11 15 -29 15 -41 0 -12 6 -27 13 -34 10 -11 9 -12
-3 -6 -10 6 -9 2 3 -12 11 -13 18 -37 19 -62 0 -22 4 -38 9 -35 8 4 10 -4 9
-31 0 -3 7 -19 15 -35 9 -17 12 -30 8 -30 -4 0 -2 -5 5 -12 7 -7 12 -23 12
-36 0 -13 4 -20 10 -17 6 4 10 -10 10 -34 0 -23 6 -43 13 -48 8 -4 17 -26 20
-48 4 -22 11 -41 17 -43 5 -2 10 -18 10 -35 0 -18 7 -40 15 -50 7 -11 12 -27
10 -38 -2 -12 2 -19 11 -19 8 0 15 -11 16 -25 0 -14 1 -31 2 -37 1 -7 7 -19
14 -26 6 -7 12 -29 12 -48 0 -19 4 -33 9 -30 11 7 21 -17 21 -50 0 -13 4 -24
8 -24 5 0 9 -6 10 -12 9 -66 15 -87 25 -81 6 4 8 0 4 -10 -3 -10 -2 -17 3 -17
6 0 9 -3 9 -7 -1 -5 0 -11 1 -15 1 -5 3 -11 4 -15 14 -53 85 -132 121 -134 35
-1 57 -7 68 -18 7 -7 16 -7 29 0 11 6 24 6 35 1 9 -6 29 -6 45 -2 17 5 28 5
28 -1 0 -6 7 -6 18 -1 15 7 37 9 45 2 6 -5 47 -6 47 0 0 3 9 6 20 6 11 0 20
-3 20 -7 0 -7 57 -2 71 6 5 4 9 2 9 -2 0 -9 92 -8 116 1 8 3 14 2 14 -2 0 -10
912 -9 928 1 6 5 12 4 12 0 0 -5 9 -9 20 -9 11 0 20 4 20 9 0 4 5 5 12 1 17
-11 78 -12 84 -2 3 5 13 4 22 -1 11 -6 24 -6 34 0 11 6 19 6 23 -1 3 -5 11
-10 16 -10 6 0 8 3 6 8 -3 4 10 7 29 7 19 0 34 -4 34 -8 0 -4 8 -4 18 1 9 5
26 6 37 2 11 -4 28 -3 38 2 12 6 17 5 17 -4 0 -8 3 -9 8 -3 4 6 26 10 49 10
22 0 39 3 36 7 -4 7 37 13 60 9 4 0 7 5 7 13 0 7 9 16 21 19 12 3 18 10 14 16
-3 6 1 11 9 11 8 0 18 5 22 12 4 6 3 8 -4 5 -7 -5 -6 1 1 17 7 13 15 22 19 20
7 -4 11 35 7 63 0 3 6 10 15 15 10 6 16 22 16 43 0 21 6 37 16 43 9 5 15 12
15 15 -4 29 1 57 8 52 6 -3 8 4 6 15 -2 11 1 20 6 20 6 0 8 4 4 9 -3 5 2 16
10 24 11 12 12 17 2 20 -9 4 -9 8 1 15 12 8 19 28 21 60 1 7 5 11 9 8 4 -2 9
10 10 27 2 17 9 42 17 54 8 12 15 30 15 39 0 10 8 27 18 38 16 20 16 20 -2 6
-19 -15 -19 -14 -1 20 34 66 36 72 41 108 2 20 11 40 19 44 8 5 12 15 8 23 -3
8 2 25 10 38 12 19 20 50 27 105 0 2 5 0 10 -3 6 -4 10 10 10 35 0 25 4 39 10
35 5 -3 7 0 4 8 -3 8 -1 18 5 22 6 3 11 22 11 41 0 19 5 34 11 34 5 0 7 5 4
10 -3 6 -2 10 2 10 5 0 10 11 11 26 1 14 7 34 13 45 6 12 12 35 15 52 2 18 8
33 14 35 5 2 10 14 10 27 0 36 12 85 19 80 4 -2 8 15 9 38 2 23 9 47 17 53 8
6 15 24 15 41 0 16 5 34 12 41 7 7 13 28 13 48 1 20 6 39 12 42 5 4 13 25 16
46 4 22 10 42 14 45 5 3 10 22 12 41 3 39 9 52 19 46 4 -2 8 26 10 63 2 52 -1
71 -13 81 -8 7 -15 19 -15 27 0 16 -88 103 -105 103 -9 0 -51 33 -101 79 -12
11 -24 18 -26 16 -2 -3 -24 13 -47 35 -23 22 -49 40 -57 40 -8 0 -17 7 -20 15
-4 8 -13 15 -21 15 -8 0 -12 4 -8 9 3 5 -4 12 -15 16 -11 3 -20 11 -20 17 0 6
-3 9 -6 5 -6 -5 -28 10 -66 46 -10 9 -22 17 -27 17 -5 0 -12 7 -15 16 -3 8
-10 13 -14 10 -5 -3 -15 4 -22 15 -8 10 -22 19 -32 19 -12 0 -15 5 -11 17 4
10 2 14 -4 10 -6 -4 -16 0 -23 8 -7 8 -19 15 -27 15 -8 0 -12 4 -9 9 3 5 -8
14 -24 21 -16 7 -27 16 -24 21 3 5 -2 9 -11 9 -8 0 -18 7 -21 15 -4 8 -9 13
-14 10 -4 -2 -16 4 -27 15 -12 10 -24 16 -27 13 -3 -4 -6 1 -6 10 0 10 -5 17
-10 17 -12 0 -73 41 -78 53 -2 4 -10 7 -18 7 -8 0 -14 4 -14 9 0 5 -11 12 -25
15 -14 4 -25 12 -25 19 0 6 -15 19 -33 28 -17 9 -31 21 -30 26 1 5 -5 10 -13
11 -7 1 -21 3 -29 4 -8 1 -15 7 -15 15 0 12 -13 17 -33 14 -5 -1 -6 3 -2 8 3
6 -5 13 -19 17 -13 3 -27 12 -30 21 -3 8 -10 11 -16 8 -5 -3 -10 0 -10 8 0 8
-10 17 -23 21 -12 3 -33 16 -47 28 -13 13 -28 24 -32 24 -5 1 -12 2 -18 3 -5
0 -10 8 -10 16 0 8 -6 15 -14 15 -8 0 -24 11 -37 25 -13 13 -31 25 -40 25 -9
0 -19 7 -23 15 -3 8 -12 15 -20 15 -7 0 -16 7 -20 15 -3 8 -15 15 -26 15 -11
0 -20 5 -20 10 0 6 -11 15 -25 22 -13 6 -22 14 -20 18 3 4 -3 7 -13 7 -36 0
-43 3 -36 16 5 7 0 6 -11 -3 -10 -8 -16 -10 -12 -3 5 8 -2 11 -23 11 -16 -1
-30 -6 -30 -12 0 -7 -3 -8 -8 -1 -5 7 -14 7 -29 0z m99 -569 c14 -14 29 -22
32 -19 3 4 6 1 6 -5 0 -7 7 -12 15 -12 8 0 15 -4 15 -9 0 -5 9 -13 20 -16 11
-4 17 -11 14 -17 -5 -7 -2 -9 8 -6 8 4 21 -2 29 -13 7 -10 22 -19 32 -19 10 0
15 -5 12 -10 -3 -6 4 -15 17 -20 34 -15 60 -32 84 -57 12 -12 25 -19 28 -16 3
4 6 1 6 -6 0 -7 4 -10 8 -7 5 3 23 -8 41 -24 17 -16 34 -28 36 -27 2 1 14 -6
25 -15 11 -10 25 -18 31 -18 5 0 7 -4 4 -10 -3 -5 -1 -10 5 -10 7 0 23 -9 37
-20 14 -11 29 -17 34 -14 5 3 9 -2 9 -10 0 -9 4 -16 10 -16 9 0 35 -19 65 -47
8 -7 18 -13 24 -13 6 0 11 -4 11 -8 0 -4 18 -19 40 -32 22 -14 40 -28 40 -32
0 -5 7 -8 15 -8 8 0 15 -6 15 -14 0 -7 8 -16 18 -20 28 -9 57 -30 122 -88 11
-10 22 -18 25 -18 6 0 24 -14 56 -42 10 -10 24 -18 29 -18 6 0 10 -7 10 -15 0
-9 6 -12 17 -8 10 4 14 2 10 -4 -4 -6 7 -16 23 -23 17 -7 30 -16 30 -21 0 -5
7 -9 15 -9 8 0 15 -6 15 -14 0 -8 7 -17 16 -20 15 -6 15 -8 1 -24 -8 -9 -17
-33 -19 -52 -2 -24 -7 -34 -17 -32 -12 3 -12 0 -1 -12 8 -11 9 -16 1 -16 -6 0
-11 -13 -11 -30 0 -16 -4 -30 -10 -30 -5 0 -12 -23 -16 -51 -4 -28 -12 -53
-18 -55 -6 -2 -12 -19 -13 -37 -1 -17 -6 -41 -11 -52 -19 -42 -42 -124 -42
-145 0 -13 -8 -29 -17 -37 -11 -9 -12 -12 -3 -7 12 6 13 4 3 -7 -7 -7 -13 -28
-13 -46 0 -18 -4 -33 -10 -33 -5 0 -13 -18 -16 -40 -4 -22 -10 -37 -15 -35 -4
3 -6 -3 -4 -15 2 -11 0 -22 -6 -25 -5 -4 -9 -17 -9 -30 0 -13 -4 -25 -9 -27
-5 -1 -11 -18 -13 -36 -2 -18 -10 -37 -18 -42 -8 -6 -12 -10 -8 -10 9 0 -12
-74 -23 -80 -5 -3 -10 -21 -11 -39 -1 -18 -7 -35 -14 -38 -6 -2 -11 -20 -12
-39 -1 -19 -8 -42 -17 -50 -8 -9 -15 -27 -15 -40 0 -17 -4 -23 -12 -18 -7 4
-8 3 -4 -4 4 -6 0 -27 -8 -46 -8 -19 -12 -37 -8 -40 3 -3 0 -6 -6 -6 -7 0 -12
-15 -12 -33 0 -20 -5 -34 -12 -34 -67 -3 -98 -9 -98 -17 0 -6 -5 -4 -10 4 -6
10 -10 11 -10 3 0 -7 -5 -13 -11 -13 -5 0 -7 6 -3 13 5 9 4 9 -6 0 -9 -9 -17
-9 -26 -2 -8 7 -14 7 -19 -1 -3 -5 -11 -10 -16 -10 -6 0 -8 4 -5 9 3 5 -9 7
-27 4 -17 -2 -40 -4 -50 -4 -9 0 -16 -3 -13 -7 2 -4 -7 -7 -20 -7 -13 0 -24 4
-24 8 0 5 -5 5 -12 1 -16 -10 -68 -11 -68 -1 0 5 -6 5 -12 0 -14 -8 -588 -12
-588 -3 0 8 -106 4 -120 -5 -9 -6 -11 -4 -5 6 8 12 6 12 -8 0 -11 -8 -17 -9
-17 -3 0 6 -7 9 -15 6 -8 -4 -15 -1 -15 4 0 11 -31 9 -52 -4 -7 -4 -8 -3 -4 4
4 7 3 12 -3 12 -5 0 -13 -5 -16 -10 -4 -6 -11 -7 -18 -3 -18 11 -137 12 -130
0 4 -6 1 -7 -8 -1 -14 9 -34 14 -56 16 -7 1 -13 13 -13 27 0 14 -7 35 -15 45
-8 11 -15 29 -15 41 0 11 -7 30 -15 41 -8 12 -15 37 -17 57 -1 20 -6 33 -10
31 -8 -5 -12 10 -9 34 1 8 -5 22 -13 31 -8 9 -17 34 -19 55 -3 21 -9 41 -15
45 -5 3 -12 22 -16 41 -3 19 -10 36 -15 38 -6 2 -11 17 -11 33 0 16 -4 29 -8
29 -5 0 -9 6 -10 13 -8 60 -16 87 -23 87 -5 0 -9 9 -9 20 0 11 -6 20 -12 20
-10 0 -10 2 0 9 11 6 10 11 -3 24 -9 9 -17 33 -18 52 -1 19 -6 35 -11 35 -4 0
-5 7 -2 16 3 8 2 12 -4 9 -6 -4 -10 9 -10 29 0 20 -4 36 -10 36 -8 0 -18 37
-23 90 -1 8 -8 20 -15 25 -7 6 -13 27 -14 47 -1 21 -5 35 -10 32 -4 -3 -9 4
-9 15 -3 48 -5 57 -14 71 -5 8 -11 23 -12 34 -2 10 -10 33 -18 50 -8 17 -15
48 -17 68 -1 21 -8 40 -15 42 -13 6 -19 28 -5 23 4 -1 8 3 10 8 2 6 14 16 28
23 13 7 22 17 19 22 -6 9 16 15 38 11 5 -1 6 3 3 8 -4 5 3 12 14 16 11 3 20
11 20 16 0 5 7 9 15 9 8 0 15 7 15 15 0 8 6 15 14 15 8 0 16 7 20 15 3 8 12
15 21 15 9 0 27 12 40 26 14 15 29 23 36 18 8 -4 9 -3 5 5 -4 7 5 18 23 29 17
9 31 20 31 25 0 4 6 7 14 7 7 0 21 11 32 25 13 17 22 21 30 14 8 -7 11 -5 10
5 0 8 2 15 7 15 4 0 19 12 34 25 15 14 30 23 35 20 4 -3 8 2 8 11 0 8 12 21
28 28 15 6 33 17 40 24 7 7 18 13 23 13 6 0 7 5 3 11 -4 7 -1 10 6 7 8 -2 21
3 31 11 43 40 109 86 109 76 0 -3 11 6 24 20 16 17 30 24 38 19 7 -4 10 -4 6
0 -8 10 14 36 25 29 4 -2 7 1 7 6 0 6 5 11 11 11 6 0 17 7 26 15 8 8 19 12 25
9 6 -4 8 -2 5 3 -6 10 5 19 26 21 4 1 18 13 31 27 13 14 28 25 33 25 5 0 18 9
28 20 10 11 23 20 28 20 5 0 21 12 35 28 13 15 21 20 16 12 -5 -11 -2 -10 13
3 11 9 23 14 26 10 4 -3 7 1 7 10 0 25 31 21 62 -7z"/>
<path d="M8463 6143 c-7 -3 -13 -15 -13 -28 0 -13 -7 -30 -15 -39 -8 -8 -15
-26 -15 -39 0 -14 -7 -28 -16 -31 -8 -3 -13 -9 -11 -14 3 -4 -2 -23 -10 -42
-9 -19 -15 -39 -14 -43 1 -4 -5 -18 -14 -30 -8 -12 -15 -31 -15 -43 0 -12 -7
-27 -15 -34 -8 -7 -15 -25 -15 -40 0 -16 -5 -30 -11 -32 -5 -2 -14 -19 -19
-38 -26 -98 -39 -135 -48 -133 -5 1 -8 -9 -6 -22 1 -14 -2 -27 -6 -30 -5 -3
-6 -13 -3 -22 4 -11 3 -14 -5 -9 -8 5 -12 -3 -12 -23 0 -17 1 -32 3 -34 1 -2
-6 -11 -15 -21 -15 -15 -24 -58 -19 -89 1 -5 -3 -6 -8 -3 -10 7 -33 -83 -25
-96 3 -5 0 -7 -6 -6 -7 2 -14 -7 -16 -19 -7 -41 -9 -48 -16 -53 -4 -3 -8 -22
-10 -43 -1 -20 -8 -39 -15 -41 -7 -3 -13 -21 -13 -41 0 -21 -4 -34 -10 -30 -6
3 -7 -1 -4 -9 3 -9 2 -16 -3 -16 -5 0 -10 -15 -11 -32 -2 -18 -7 -35 -12 -36
-6 -2 -8 -8 -4 -13 3 -5 1 -9 -3 -9 -8 0 -12 -15 -15 -57 -1 -7 -5 -13 -10
-13 -5 0 -6 -4 -3 -10 3 -5 2 -10 -2 -10 -5 0 -10 -12 -11 -27 -1 -16 -10 -34
-19 -40 -9 -7 -12 -13 -6 -13 6 0 8 -11 5 -25 -2 -14 -9 -22 -14 -19 -6 4 -5
-3 1 -14 8 -15 8 -23 -1 -28 -7 -4 -8 -3 -4 4 4 7 2 12 -3 12 -6 0 -11 -16
-11 -35 0 -49 0 -49 -16 -58 -8 -4 -14 -21 -14 -37 0 -17 -5 -30 -12 -30 -6 0
-8 -3 -5 -6 3 -4 2 -15 -3 -24 -5 -10 -11 -31 -12 -48 -1 -17 -6 -28 -10 -26
-4 3 -8 2 -9 -3 0 -8 -6 -38 -11 -65 -2 -7 -6 -16 -10 -19 -5 -3 -9 -17 -10
-32 -1 -15 -6 -27 -11 -27 -5 0 -7 -6 -4 -14 3 -8 1 -16 -4 -18 -5 -2 -11 -14
-11 -28 -1 -14 -6 -28 -11 -31 -5 -3 -11 -25 -14 -47 -3 -23 -9 -39 -14 -36
-5 3 -6 -2 -3 -10 3 -9 2 -16 -3 -16 -5 0 -10 -14 -11 -31 -1 -17 -7 -40 -13
-51 -6 -12 -13 -35 -16 -52 -3 -17 -9 -32 -14 -34 -5 -2 -9 -19 -9 -37 0 -19
-5 -37 -10 -40 -6 -4 -8 -11 -5 -16 4 -5 2 -9 -3 -9 -9 0 -9 -2 -13 -57 -1
-18 -5 -30 -9 -28 -5 3 -11 -2 -14 -11 -4 -10 -2 -13 7 -8 9 5 9 4 0 -7 -7 -7
-13 -26 -13 -42 0 -16 -7 -35 -15 -43 -8 -9 -15 -28 -15 -44 0 -16 -5 -32 -10
-35 -6 -4 -8 -10 -5 -15 3 -5 2 -11 -3 -14 -4 -2 -9 -19 -10 -37 -2 -18 -7
-36 -11 -39 -5 -3 -10 -18 -12 -35 -2 -16 -7 -35 -12 -42 -5 -7 -5 -18 -1 -24
4 -8 3 -9 -4 -5 -8 5 -12 -3 -13 -23 -2 -46 -3 -49 -16 -63 -7 -6 -13 -26 -13
-43 0 -17 -6 -37 -12 -44 -11 -11 -10 -13 2 -7 13 7 13 6 0 -6 -16 -14 -19
-22 -23 -72 -1 -19 -5 -32 -9 -30 -4 3 -10 -8 -14 -23 -3 -15 -12 -46 -19 -68
-7 -21 -12 -51 -11 -66 1 -15 -2 -27 -7 -26 -9 2 -11 -7 -20 -64 -2 -11 -8
-24 -13 -27 -5 -4 -11 -23 -13 -42 -1 -19 -8 -41 -14 -49 -10 -12 -9 -13 3 -7
13 6 13 5 0 -6 -9 -7 -17 -26 -18 -41 -1 -15 -9 -41 -17 -57 -9 -17 -13 -30
-11 -30 2 0 -4 -23 -14 -52 -10 -29 -17 -60 -15 -70 2 -10 -1 -18 -6 -18 -6 0
-7 -4 -4 -10 3 -5 2 -10 -3 -10 -5 0 -9 -14 -10 -31 0 -18 -5 -36 -11 -42 -6
-6 -354 -10 -1020 -10 -679 1 -1011 -2 -1011 -9 0 -6 -6 -5 -15 2 -11 9 -15 9
-15 1 0 -9 -5 -9 -21 0 -17 8 -20 8 -14 -1 5 -9 1 -10 -15 -5 -17 5 -21 4 -15
-6 6 -11 5 -12 -6 -2 -15 15 -33 17 -25 4 7 -10 -46 -7 -64 4 -9 5 -11 4 -6
-3 4 -7 3 -12 -3 -12 -5 0 -12 6 -14 13 -4 9 -6 8 -6 -2 -1 -11 -4 -11 -18 0
-10 9 -14 9 -10 2 6 -9 -66 -12 -315 -14 -178 0 -340 0 -360 0 -23 1 -38 -3
-38 -10 0 -8 -4 -8 -15 1 -12 10 -15 10 -15 -1 0 -9 -3 -10 -8 -4 -10 14 -42
15 -42 1 0 -6 -5 -4 -11 4 -8 11 -12 12 -16 3 -2 -7 -9 -13 -14 -13 -6 0 -7 5
-3 11 4 8 0 8 -15 0 -15 -8 -21 -9 -21 -1 0 6 -5 8 -10 5 -6 -4 -8 -11 -5 -16
3 -5 -1 -6 -9 -3 -9 3 -13 11 -9 18 4 6 -1 5 -11 -3 -13 -11 -63 -15 -219 -18
-209 -3 -216 -1 -217 40 0 9 -11 40 -25 69 -14 28 -25 58 -25 65 0 8 -7 16
-15 19 -8 4 -15 17 -15 30 0 15 -6 24 -15 24 -8 0 -15 9 -15 21 0 11 -4 17
-10 14 -5 -3 -10 0 -10 8 0 7 -9 23 -20 35 -11 12 -20 26 -20 32 0 6 -5 8 -10
5 -6 -3 -10 -2 -10 4 0 10 -66 81 -76 81 -3 0 -16 12 -29 26 -14 15 -25 23
-25 18 0 -5 -4 -4 -8 2 -12 19 -104 74 -113 68 -5 -3 -9 2 -9 10 0 11 -9 16
-30 16 -16 0 -30 4 -30 9 0 10 -48 25 -67 22 -7 -1 -13 3 -13 9 0 6 -4 8 -10
5 -5 -3 -10 -2 -10 3 0 5 -21 10 -47 10 -25 1 -50 7 -54 13 -4 7 -50 12 -130
13 -100 2 -128 -1 -143 -13 -11 -9 -16 -10 -12 -3 8 14 -6 16 -19 3 -6 -6 -35
-12 -65 -15 -30 -3 -56 -10 -58 -16 -2 -5 -15 -10 -28 -10 -14 0 -27 -6 -30
-13 -2 -7 -16 -14 -31 -15 -15 -1 -29 -6 -32 -10 -7 -9 -45 -25 -48 -20 -2 2
-10 -7 -18 -20 -9 -12 -20 -20 -24 -17 -5 2 -23 -9 -42 -25 -19 -16 -39 -34
-46 -40 -7 -5 -17 -10 -24 -10 -6 0 -9 -7 -5 -15 3 -8 1 -15 -5 -15 -14 0 -69
-56 -69 -70 0 -6 -5 -8 -10 -5 -6 3 -13 -2 -17 -12 -4 -10 -11 -21 -17 -25 -6
-4 -11 -13 -11 -20 -1 -7 -6 -12 -12 -11 -6 1 -13 -11 -17 -28 -3 -17 -10 -28
-16 -24 -6 4 -10 -5 -10 -19 0 -14 -8 -30 -17 -35 -10 -6 -14 -11 -9 -11 5 0
3 -7 -4 -15 -7 -8 -9 -15 -4 -15 5 0 3 -4 -4 -8 -7 -5 -15 -19 -18 -33 -3 -13
-7 -31 -9 -39 -2 -8 -4 -19 -4 -23 -1 -5 -4 -6 -9 -4 -4 3 -8 -14 -9 -36 -3
-57 -5 -67 -13 -67 -8 0 -9 -12 -9 -140 1 -58 0 -118 0 -133 -1 -16 2 -26 7
-23 8 5 11 -6 15 -69 1 -22 8 -46 15 -53 6 -7 13 -23 14 -35 2 -42 3 -46 12
-54 5 -5 6 -2 1 6 -5 10 -4 12 4 7 6 -4 11 -13 10 -19 -2 -19 13 -57 22 -57 5
0 9 -7 9 -16 0 -8 6 -22 12 -29 29 -32 38 -45 33 -45 -2 0 5 -11 16 -24 12
-13 20 -26 19 -28 -4 -6 101 -108 111 -108 5 0 9 -7 9 -15 0 -8 4 -15 8 -15 5
0 19 -10 32 -23 14 -12 26 -20 28 -18 2 1 15 -6 28 -18 13 -12 31 -21 40 -21
9 0 22 -7 28 -15 6 -9 21 -17 34 -18 12 0 22 -7 22 -15 0 -7 4 -11 9 -7 5 3
12 1 16 -4 3 -6 12 -8 20 -4 8 3 15 0 15 -6 0 -6 11 -11 23 -11 13 0 38 -7 55
-15 17 -9 56 -16 86 -16 31 -1 56 -4 56 -9 0 -4 18 -4 40 0 22 4 43 3 46 -1 3
-5 11 -6 17 -2 7 4 21 9 32 10 20 3 20 3 1 -12 -11 -8 -15 -15 -9 -15 6 0 15
6 21 13 7 8 39 14 83 15 40 2 81 8 93 14 12 7 30 13 40 15 11 2 26 9 35 16 12
10 13 9 6 -3 -6 -11 -3 -10 12 3 11 9 23 14 27 10 4 -5 14 1 22 12 8 11 17 19
19 18 11 -4 45 10 45 18 0 5 7 9 15 9 19 0 86 46 78 54 -4 3 1 6 10 6 8 0 24
11 35 25 11 13 22 21 26 18 3 -3 6 1 6 10 0 10 4 16 9 15 10 -3 51 40 51 54 0
5 4 7 9 3 5 -3 12 4 16 15 3 11 10 20 15 20 4 0 10 9 13 21 3 12 10 18 16 14
7 -4 11 4 11 20 0 14 7 28 15 31 8 4 15 12 15 20 0 8 4 14 9 14 4 0 13 15 18
33 5 17 14 31 20 30 6 -1 9 9 7 22 -1 14 2 25 7 25 6 0 7 5 4 10 -3 6 -2 10 3
10 5 0 12 13 15 29 l6 29 188 2 c422 4 463 5 463 13 0 4 9 3 19 -3 15 -7 23
-6 35 6 9 8 16 11 16 5 0 -15 27 -14 33 2 4 9 6 9 6 -1 1 -8 6 -10 14 -5 18
11 38 13 31 2 -3 -5 -11 -6 -17 -3 -7 4 -9 3 -4 -1 11 -13 46 -13 41 0 -3 6 6
11 20 11 14 0 22 -4 20 -8 -3 -4 0 -8 5 -8 6 0 11 5 11 10 0 6 7 10 16 10 8 0
12 -4 9 -10 -3 -5 -1 -10 4 -10 6 0 11 5 11 11 0 8 6 7 17 -2 9 -8 14 -9 10
-3 -5 8 76 12 301 14 365 2 393 3 409 13 6 4 15 3 18 -3 5 -8 12 -7 23 2 13
11 14 11 8 0 -10 -16 25 -13 37 3 4 6 11 4 17 -5 9 -13 10 -13 10 0 0 13 1 13
10 0 9 -13 11 -13 20 0 9 13 11 13 20 0 9 -13 10 -13 10 0 0 13 1 13 10 0 9
-13 11 -13 20 0 9 13 11 13 20 0 9 -13 10 -13 10 0 0 13 1 13 10 0 9 -13 11
-13 20 0 9 13 10 13 10 0 0 -13 1 -13 10 0 9 13 11 13 20 0 9 -13 10 -13 10 0
0 13 1 13 10 0 9 -13 11 -13 20 0 9 13 10 13 10 0 0 -13 1 -13 10 0 9 13 11
13 20 0 9 -13 10 -13 10 0 0 13 1 13 10 0 9 -13 11 -13 20 0 9 13 10 13 10 0
0 -13 1 -13 10 0 9 13 11 13 20 0 9 -13 10 -13 10 0 0 13 1 13 10 0 9 -13 11
-13 20 0 8 12 11 13 19 1 7 -11 9 -11 14 0 5 12 6 12 6 0 1 -11 4 -11 18 0 14
12 15 12 9 1 -7 -11 -4 -12 13 -3 16 9 21 9 21 -1 0 -10 2 -10 9 1 7 11 9 11
14 0 4 -12 7 -11 16 1 10 13 12 13 21 0 9 -13 10 -13 10 0 0 13 1 13 10 0 9
-13 11 -13 20 0 9 13 11 13 20 0 9 -13 10 -13 10 0 0 13 1 13 10 0 9 -13 10
-13 10 0 0 13 1 13 10 0 9 -13 10 -13 10 0 0 12 2 12 9 1 6 -9 11 -10 15 -2 4
6 15 7 29 2 12 -5 32 -5 45 0 14 5 22 5 22 -3 0 -7 5 -6 15 2 8 7 15 8 15 3 0
-13 33 -12 43 1 5 8 10 6 17 -4 9 -13 10 -13 10 0 0 13 1 13 10 0 9 -13 11
-13 20 0 9 13 11 13 20 0 9 -13 10 -13 10 0 0 13 1 13 10 0 9 -13 10 -13 10 0
0 13 1 13 10 0 9 -13 10 -13 10 0 0 12 2 12 9 1 6 -9 11 -10 15 -2 5 8 13 8
26 1 13 -7 20 -6 23 3 4 9 8 8 16 -3 10 -13 11 -13 11 0 0 13 1 13 10 0 9 -13
11 -13 20 0 9 13 10 13 10 0 0 -13 1 -13 10 0 9 13 11 13 20 0 9 -13 10 -13
10 0 0 13 1 13 10 0 9 -13 11 -13 20 0 9 13 10 13 10 0 0 -13 1 -13 10 0 9 13
11 13 20 0 9 -13 10 -13 10 0 0 13 1 13 10 0 9 -13 11 -13 20 0 9 13 10 13 10
0 0 -13 1 -13 10 0 8 12 12 13 19 2 4 -8 12 -14 16 -14 4 0 12 6 16 14 7 10 9
10 9 1 0 -7 5 -13 11 -13 5 0 7 6 3 12 -6 10 -4 10 7 3 17 -12 39 -13 58 -1
10 6 12 5 7 -2 -9 -15 -1 -15 25 -2 11 6 25 8 32 3 18 -11 47 -11 47 1 0 6 4
5 9 -2 11 -17 21 -17 32 0 7 10 9 10 9 1 0 -7 5 -13 11 -13 5 0 7 6 3 13 -6 9
-4 9 7 2 17 -12 39 -13 58 -1 9 6 12 5 8 -1 -4 -6 61 -10 174 -10 132 -1 177
2 172 11 -4 6 -1 6 9 -2 13 -10 17 -10 22 3 3 8 9 15 13 14 29 -5 73 3 68 11
-3 5 0 10 8 10 15 0 104 80 90 80 -5 0 -2 4 4 8 7 4 14 17 16 27 2 11 8 29 14
40 6 11 14 35 18 52 3 18 11 35 16 38 5 4 9 24 9 45 0 21 6 45 13 52 6 7 14
29 15 48 2 19 9 38 14 41 6 4 7 12 4 18 -4 6 -2 11 4 11 6 0 9 3 6 8 -2 4 4
32 14 62 10 29 17 62 15 72 -2 10 1 18 7 18 5 0 7 7 4 16 -3 8 -2 13 3 10 5
-3 11 13 14 36 3 24 11 44 16 46 6 2 11 21 11 42 0 21 4 40 9 42 9 3 18 40 20
81 1 11 5 15 13 11 7 -5 9 -2 5 8 -3 9 -3 19 0 22 3 3 7 20 8 38 2 18 8 34 14
36 6 2 11 21 11 43 0 26 5 42 15 45 13 5 13 9 3 22 -10 12 -10 14 0 8 9 -5 12
4 12 34 0 23 4 39 9 36 11 -7 21 17 21 50 0 14 5 35 11 47 7 11 14 37 16 56 3
20 9 39 15 42 8 5 14 32 17 82 0 10 6 15 11 12 9 -5 16 41 11 69 -1 5 3 12 9
16 6 4 14 30 19 59 5 29 13 56 19 60 6 3 12 27 13 53 2 26 6 45 10 43 8 -6 19
30 19 63 0 13 4 21 8 18 7 -4 9 3 13 59 1 14 6 25 11 25 5 0 6 5 3 10 -3 6 -1
10 4 10 6 0 11 17 11 38 0 20 7 46 15 56 8 11 15 32 15 48 0 15 5 28 11 28 5
0 7 5 4 10 -3 6 -2 10 2 10 5 0 10 14 11 32 2 18 7 35 12 38 5 3 12 24 16 45
3 22 10 42 15 43 5 2 7 8 3 13 -3 5 0 9 6 9 6 0 9 4 5 10 -7 12 5 61 14 56 4
-3 8 12 9 32 2 20 8 40 15 44 7 4 8 8 2 8 -5 0 -5 4 2 8 7 4 13 26 14 49 2 23
7 41 13 40 11 -2 13 5 15 54 0 17 5 28 11 24 11 -7 11 -6 15 44 1 18 7 36 13
40 5 3 13 24 16 46 4 22 11 42 16 43 6 2 10 15 10 30 0 14 8 34 18 45 12 15
13 18 2 12 -12 -6 -13 -5 -2 6 6 7 12 26 12 42 0 20 4 26 13 21 7 -5 6 0 -3
11 -8 10 -10 16 -4 12 13 -7 24 13 24 43 0 10 7 31 15 46 8 16 15 39 15 52 0
12 5 22 10 22 5 0 9 3 9 8 -1 4 -1 9 1 12 1 3 4 16 6 30 3 13 9 29 14 34 6 6
10 24 10 42 0 17 7 37 15 44 8 7 15 28 15 47 0 19 4 32 9 28 5 -3 13 0 17 6 4
8 3 9 -4 5 -16 -10 -15 -5 7 47 11 25 17 48 14 51 -4 3 -2 6 4 6 6 0 9 10 9
23 -2 23 12 50 23 43 3 -2 5 10 5 27 -1 18 6 41 15 51 13 16 13 18 1 11 -12
-6 -13 -5 -2 6 6 7 12 26 12 41 0 15 5 28 11 28 5 0 7 5 4 10 -3 6 -1 10 4 10
6 0 11 12 11 28 0 15 7 36 15 46 8 11 15 34 15 52 0 18 5 34 11 36 6 2 11 24
12 48 0 78 -3 101 -13 95 -6 -4 -10 5 -10 20 0 14 -6 32 -12 40 -46 53 -78 85
-87 85 -5 0 -14 6 -18 13 -4 7 -25 23 -45 36 -21 12 -38 27 -38 32 0 6 -5 7
-10 4 -6 -3 -13 1 -16 9 -3 9 -12 16 -20 16 -8 0 -14 5 -14 11 0 5 -5 7 -10 4
-6 -3 -13 0 -16 8 -5 14 -19 17 -41 10z m-5732 -3792 c0 8 4 5 9 -6 7 -17 9
-17 9 -3 1 11 6 15 16 12 8 -4 12 -10 9 -15 -3 -5 12 -9 33 -9 22 0 45 -6 52
-12 11 -11 12 -10 6 2 -8 13 -7 13 9 0 10 -8 25 -15 34 -16 8 -2 19 -10 24
-18 5 -9 16 -16 23 -16 8 0 15 -4 15 -9 0 -5 9 -12 19 -16 10 -3 21 -15 24
-26 3 -12 10 -18 16 -15 6 4 13 -5 17 -19 3 -13 10 -22 15 -19 5 3 9 0 9 -7 0
-7 8 -21 18 -32 10 -13 12 -17 3 -12 -11 6 -10 2 2 -16 9 -13 17 -31 17 -40 0
-10 5 -19 11 -21 7 -2 10 -40 10 -103 -2 -125 -3 -135 -12 -129 -4 2 -11 -11
-15 -31 -3 -19 -9 -35 -13 -35 -3 0 -12 -9 -19 -21 -11 -17 -11 -20 0 -14 7 4
-8 -14 -34 -40 -27 -25 -48 -50 -48 -56 0 -5 -6 -9 -14 -9 -7 0 -19 -7 -26
-15 -7 -9 -19 -14 -27 -11 -7 3 -13 -1 -13 -9 0 -8 -6 -16 -12 -17 -7 0 -17
-2 -23 -2 -5 -1 -17 -6 -25 -11 -22 -14 -36 -16 -130 -17 -50 0 -97 5 -115 12
-35 16 -40 17 -61 19 -8 0 -12 6 -9 11 3 6 -3 10 -13 10 -11 0 -25 7 -32 15
-7 8 -18 15 -26 15 -7 0 -18 9 -24 20 -6 11 -15 18 -21 15 -5 -4 -8 -2 -7 3 3
11 -18 45 -45 74 -10 11 -19 28 -20 39 -1 10 -5 19 -10 19 -4 0 -5 5 -2 10 3
6 1 10 -5 10 -6 0 -10 6 -9 13 3 28 -2 58 -9 53 -4 -2 -9 4 -9 15 -1 12 3 17
9 13 7 -5 8 -2 2 7 -12 19 -12 109 0 102 5 -4 7 1 3 10 -3 10 -3 17 2 17 5 0
7 11 6 25 -2 14 1 25 7 25 6 0 7 7 4 16 -3 8 -2 12 4 9 6 -3 10 3 10 14 0 12
4 21 9 21 5 0 13 10 17 22 8 25 124 139 135 132 4 -2 9 1 11 6 2 6 13 12 26
13 12 0 22 6 22 13 0 6 14 11 31 12 17 0 37 6 44 12 8 7 20 8 27 4 24 -15 40
-13 34 3 -5 13 -4 14 9 3 12 -10 15 -10 16 1z"/>
<path d="M4070 3786 c0 -2 7 -7 16 -10 8 -3 12 -2 9 4 -6 10 -25 14 -25 6z"/>
</g>
</svg>
